<svg xmlns="http://www.w3.org/2000/svg" version="1.1" xmlns:xlink="http://www.w3.org/1999/xlink" xmlns:svgjs="http://svgjs.dev/svgjs" width="1500" height="541" viewBox="0 0 1500 541"><g transform="matrix(1,0,0,1,-0.9090909090909918,-1.0747990177384281)"><svg viewBox="0 0 396 143" data-background-color="#ffffff" preserveAspectRatio="xMidYMid meet" height="541" width="1500" xmlns="http://www.w3.org/2000/svg" xmlns:xlink="http://www.w3.org/1999/xlink"><g id="tight-bounds" transform="matrix(1,0,0,1,0.2400000000000091,0.2842920943991487)"><svg viewBox="0 0 395.52 142.43150491109836" height="142.43150491109836" width="395.52"><g><svg viewBox="0 0 678.7647969284836 244.43135999999998" height="142.43150491109836" width="395.52"><g transform="matrix(1,0,0,1,0,73.23217821537472)"><svg viewBox="0 0 395.52 97.96700356925054" height="97.96700356925054" width="395.52"><g id="textblocktransform"><svg viewBox="0 0 395.52 97.96700356925054" height="97.96700356925054" width="395.52" id="textblock"><g><svg viewBox="0 0 395.52 65.7643079829948" height="65.7643079829948" width="395.52"><g transform="matrix(1,0,0,1,0,0)"><svg width="395.52" viewBox="-2.35 -51.25 317.52000000000004 52.800000000000004" height="65.7643079829948" data-palette-color="#111111"><path d="M59.1-9Q59.9-8.55 59.9-6.95L59.9-6.95Q59.9-5 58.93-3.03 57.95-1.05 56.18 0.25 54.4 1.55 52.05 1.55L52.05 1.55Q48.15 1.55 46.1-2.05 44.05-5.65 44.05-11.25L44.05-11.25Q44.05-14.6 44.75-18.45 45.45-22.3 46.45-25.65L46.45-25.65Q44.45-22.75 41.98-18.78 39.5-14.8 33.45-4.75L33.45-4.75Q32.35-2.9 32.35-2.1L32.35-2.1Q32.35-1.85 32.43-1.63 32.5-1.4 32.5-1.25L32.5-1.25Q32.5-1 32.1-0.9L32.1-0.9Q30.6-0.4 30.13-0.15 29.65 0.1 29.55 0.1L29.55 0.1Q29.25 0.1 29-0.4L29-0.4Q29.25-0.55 29.38-0.9 29.5-1.25 29.5-2.2L29.5-2.2Q29.5-4.65 28.55-11.58 27.6-18.5 26.6-24.5L26.6-24.5Q23.4-16.45 20.63-11.13 17.85-5.8 14.23-2.35 10.6 1.1 6.05 1.1L6.05 1.1Q3.4 1.1 1.5-0.05-0.4-1.2-1.38-3.18-2.35-5.15-2.35-7.5L-2.35-7.5Q-2.35-9.6-1.65-11.28-0.95-12.95 0.1-13.9 1.15-14.85 2.15-14.85L2.15-14.85Q2.65-14.85 2.95-14.6L2.95-14.6Q0.4-11.9 0.4-8.2L0.4-8.2Q0.4-5.15 1.98-3.45 3.55-1.75 6.5-1.75L6.5-1.75Q10.35-1.75 13.4-4.75 16.45-7.75 19.13-13.1 21.8-18.45 25.85-28.3L25.85-28.3Q25.8-28.65 25.75-29.05 25.7-29.45 25.6-29.85L25.6-29.85Q25.5-30.4 25.28-32.02 25.05-33.65 25.05-34.45L25.05-34.45Q25.05-35.4 25.55-35.83 26.05-36.25 26.75-36.25L26.75-36.25Q27.55-36.25 28.33-35.77 29.1-35.3 29.1-34.05L29.1-34.05Q29.1-33.75 28.8-31.45L28.8-31.45Q28.4-28.55 28.35-27.65L28.35-27.65Q28.75-25.15 30.05-16.15L30.05-16.15 31.5-6.15Q42.5-24.8 47.5-32.3L47.5-32.3Q49.65-35.5 50.83-36.77 52-38.05 52.95-38.05L52.95-38.05Q53.8-38.05 54.5-37.23 55.2-36.4 55.45-35.5L55.45-35.5Q54.1-35.5 52.8-34.33 51.5-33.15 50.4-31L50.4-31Q48.55-27.4 47.65-22.25 46.75-17.1 46.75-12.55L46.75-12.55Q46.75-7.1 48.15-4 49.55-0.9 52.45-0.9L52.45-0.9Q54.95-0.9 56.68-3.1 58.4-5.3 59.1-9L59.1-9ZM90.75-11.55Q91.4-11.55 91.4-10.25L91.4-10.25Q91.4-7.95 89.37-5.4 87.35-2.85 84.47-1.13 81.6 0.6 79.2 0.6L79.2 0.6Q77.25 0.6 76.2-0.6 75.15-1.8 74.95-3.7L74.95-3.7Q73.7-1.9 71.8-0.75 69.9 0.4 68.4 0.4L68.4 0.4Q67.1 0.4 65.82-0.48 64.55-1.35 63.75-2.63 62.95-3.9 62.9-5.05L62.9-5.05 65.35-15.15Q65.65-16.35 66.87-17.73 68.1-19.1 69.85-20 71.6-20.9 73.4-20.9L73.4-20.9Q75.7-20.9 77.45-19.35L77.45-19.35Q77.9-20.55 78.12-20.85 78.35-21.15 78.8-21.2L78.8-21.2 81.25-21.45 81.4-21.35Q80.4-20.55 79.95-18.85L79.95-18.85Q78.4-13.05 77.82-10.3 77.25-7.55 77.25-5.45L77.25-5.45Q77.25-3.35 77.8-2.38 78.35-1.4 79.65-1.4L79.65-1.4Q81.25-1.4 83.47-2.7 85.7-4 87.7-6.33 89.7-8.65 90.75-11.55L90.75-11.55ZM68.6-1.95Q69.45-1.95 70.67-2.55 71.9-3.15 72.97-4.28 74.05-5.4 74.45-6.85L74.45-6.85 75.4-10.95Q75.6-11.95 76.1-14.18 76.6-16.4 76.9-17.6L76.9-17.6Q75.5-19 73.5-19L73.5-19Q71.95-19 70.7-18.18 69.45-17.35 68.65-16.18 67.85-15 67.65-14.1L67.65-14.1 65.65-5.2Q65.75-3.95 66.65-2.95 67.55-1.95 68.6-1.95L68.6-1.95ZM91.3 0.65Q88.9 0.65 87.22-0.5 85.55-1.65 85.55-3.15L85.55-3.15Q85.55-3.95 86-4.45 86.45-4.95 87-5.05L87-5.05Q87.55-3.15 88.8-2.2 90.05-1.25 91.84-1.25L91.84-1.25Q94.09-1.25 95.45-2.53 96.8-3.8 96.8-5.5L96.8-5.5Q96.8-6.75 96.07-7.7 95.34-8.65 93.9-9.9L93.9-9.9Q92.3-11.3 91.52-12.33 90.75-13.35 90.75-14.8L90.75-14.8Q90.75-16.35 91.72-17.75 92.7-19.15 94.22-20 95.75-20.85 97.4-20.85L97.4-20.85Q98.84-20.85 100.07-20.23 101.3-19.6 101.3-18.55L101.3-18.55Q101.3-17.55 100.09-16.45L100.09-16.45Q99.45-17.6 98.5-18.23 97.55-18.85 96.5-18.85L96.5-18.85Q94.9-18.85 94.07-17.68 93.25-16.5 93.25-15.35L93.25-15.35Q93.25-14.4 93.9-13.65 94.55-12.9 95.95-11.75L95.95-11.75Q97.65-10.3 98.55-9.15 99.45-8 99.45-6.45L99.45-6.45Q99.45-4.8 98.37-3.15 97.3-1.5 95.42-0.43 93.55 0.65 91.3 0.65L91.3 0.65ZM134.74-11.55Q135.39-11.55 135.39-10.25L135.39-10.25Q135.39-7.95 133.37-5.4 131.34-2.85 128.47-1.13 125.59 0.6 123.19 0.6L123.19 0.6Q121.24 0.6 120.19-0.6 119.14-1.8 118.94-3.7L118.94-3.7Q117.69-1.9 115.79-0.75 113.89 0.4 112.39 0.4L112.39 0.4Q111.09 0.4 109.82-0.48 108.54-1.35 107.74-2.63 106.94-3.9 106.89-5.05L106.89-5.05 109.34-15.15Q109.64-16.35 110.87-17.73 112.09-19.1 113.84-20 115.59-20.9 117.39-20.9L117.39-20.9Q119.69-20.9 121.44-19.35L121.44-19.35Q121.89-20.55 122.12-20.85 122.34-21.15 122.79-21.2L122.79-21.2 125.24-21.45 125.39-21.35Q124.39-20.55 123.94-18.85L123.94-18.85Q122.39-13.05 121.82-10.3 121.24-7.55 121.24-5.45L121.24-5.45Q121.24-3.35 121.79-2.38 122.34-1.4 123.64-1.4L123.64-1.4Q125.24-1.4 127.47-2.7 129.69-4 131.69-6.33 133.69-8.65 134.74-11.55L134.74-11.55ZM112.59-1.95Q113.44-1.95 114.67-2.55 115.89-3.15 116.97-4.28 118.04-5.4 118.44-6.85L118.44-6.85 119.39-10.95Q119.59-11.95 120.09-14.18 120.59-16.4 120.89-17.6L120.89-17.6Q119.49-19 117.49-19L117.49-19Q115.94-19 114.69-18.18 113.44-17.35 112.64-16.18 111.84-15 111.64-14.1L111.64-14.1 109.64-5.2Q109.74-3.95 110.64-2.95 111.54-1.95 112.59-1.95L112.59-1.95ZM153.69-14Q154.19-14 154.49-13.53 154.79-13.05 154.79-12.35L154.79-12.35Q154.79-11.45 154.29-10.45L154.29-10.45Q152.89-7.5 150.29-5.03 147.69-2.55 144.67-1.1 141.64 0.35 139.04 0.35L139.04 0.35Q133.74 0.35 133.74-5.8L133.74-5.8Q133.74-10.1 136.09-19.63 138.44-29.15 142.89-44.9L142.89-44.9Q143.84-48.15 144.97-49.7 146.09-51.25 147.54-51.25L147.54-51.25Q148.59-51.25 149.56-50.53 150.54-49.8 151.19-48.3 151.84-46.8 151.84-44.6L151.84-44.6Q151.84-41.05 150.17-35.6 148.49-30.15 145.14-24.1 141.79-18.05 137.09-12.9L137.09-12.9Q136.24-8.5 136.24-6.35L136.24-6.35Q136.24-3.95 137.22-2.93 138.19-1.9 139.94-1.9L139.94-1.9Q142.39-1.9 145.17-3.55 147.94-5.2 150.24-8 152.54-10.8 153.69-14L153.69-14ZM144.19-41.75Q139.99-26.65 137.84-16.7L137.84-16.7Q141.54-21.35 144.22-26.85 146.89-32.35 148.22-37.15 149.54-41.95 149.54-44.7L149.54-44.7Q149.54-46.25 149.09-47.38 148.64-48.5 147.59-48.5L147.59-48.5Q146.99-48.5 146.17-47.25 145.34-46 144.19-41.75L144.19-41.75ZM179.79-11.55Q180.44-11.55 180.44-10.25L180.44-10.25Q180.44-7.95 178.41-5.4 176.39-2.85 173.51-1.13 170.64 0.6 168.24 0.6L168.24 0.6Q166.29 0.6 165.24-0.6 164.19-1.8 163.99-3.7L163.99-3.7Q162.74-1.9 160.84-0.75 158.94 0.4 157.44 0.4L157.44 0.4Q156.14 0.4 154.86-0.48 153.59-1.35 152.79-2.63 151.99-3.9 151.94-5.05L151.94-5.05 154.39-15.15Q154.69-16.35 155.91-17.73 157.14-19.1 158.89-20 160.64-20.9 162.44-20.9L162.44-20.9Q164.74-20.9 166.49-19.35L166.49-19.35Q166.94-20.55 167.16-20.85 167.39-21.15 167.84-21.2L167.84-21.2 170.29-21.45 170.44-21.35Q169.44-20.55 168.99-18.85L168.99-18.85Q167.44-13.05 166.86-10.3 166.29-7.55 166.29-5.45L166.29-5.45Q166.29-3.35 166.84-2.38 167.39-1.4 168.69-1.4L168.69-1.4Q170.29-1.4 172.51-2.7 174.74-4 176.74-6.33 178.74-8.65 179.79-11.55L179.79-11.55ZM157.64-1.95Q158.49-1.95 159.71-2.55 160.94-3.15 162.01-4.28 163.09-5.4 163.49-6.85L163.49-6.85 164.44-10.95Q164.64-11.95 165.14-14.18 165.64-16.4 165.94-17.6L165.94-17.6Q164.54-19 162.54-19L162.54-19Q160.99-19 159.74-18.18 158.49-17.35 157.69-16.18 156.89-15 156.69-14.1L156.69-14.1 154.69-5.2Q154.79-3.95 155.69-2.95 156.59-1.95 157.64-1.95L157.64-1.95ZM246.03-9Q246.83-8.55 246.83-6.95L246.83-6.95Q246.83-5 245.86-3.03 244.88-1.05 243.11 0.25 241.33 1.55 238.98 1.55L238.98 1.55Q235.08 1.55 233.03-2.05 230.98-5.65 230.98-11.25L230.98-11.25Q230.98-14.6 231.68-18.45 232.38-22.3 233.38-25.65L233.38-25.65Q231.38-22.75 228.91-18.78 226.43-14.8 220.38-4.75L220.38-4.75Q219.28-2.9 219.28-2.1L219.28-2.1Q219.28-1.85 219.36-1.63 219.43-1.4 219.43-1.25L219.43-1.25Q219.43-1 219.03-0.9L219.03-0.9Q217.53-0.4 217.06-0.15 216.58 0.1 216.48 0.1L216.48 0.1Q216.18 0.1 215.93-0.4L215.93-0.4Q216.18-0.55 216.31-0.9 216.43-1.25 216.43-2.2L216.43-2.2Q216.43-4.65 215.48-11.58 214.53-18.5 213.53-24.5L213.53-24.5Q210.33-16.45 207.56-11.13 204.78-5.8 201.16-2.35 197.53 1.1 192.98 1.1L192.98 1.1Q190.33 1.1 188.43-0.05 186.53-1.2 185.56-3.18 184.58-5.15 184.58-7.5L184.58-7.5Q184.58-9.6 185.28-11.28 185.98-12.95 187.03-13.9 188.08-14.85 189.08-14.85L189.08-14.85Q189.58-14.85 189.88-14.6L189.88-14.6Q187.33-11.9 187.33-8.2L187.33-8.2Q187.33-5.15 188.91-3.45 190.48-1.75 193.43-1.75L193.43-1.75Q197.28-1.75 200.33-4.75 203.38-7.75 206.06-13.1 208.73-18.45 212.78-28.3L212.78-28.3Q212.73-28.65 212.68-29.05 212.63-29.45 212.53-29.85L212.53-29.85Q212.43-30.4 212.21-32.02 211.98-33.65 211.98-34.45L211.98-34.45Q211.98-35.4 212.48-35.83 212.98-36.25 213.68-36.25L213.68-36.25Q214.48-36.25 215.26-35.77 216.03-35.3 216.03-34.05L216.03-34.05Q216.03-33.75 215.73-31.45L215.73-31.45Q215.33-28.55 215.28-27.65L215.28-27.65Q215.68-25.15 216.98-16.15L216.98-16.15 218.43-6.15Q229.43-24.8 234.43-32.3L234.43-32.3Q236.58-35.5 237.76-36.77 238.93-38.05 239.88-38.05L239.88-38.05Q240.73-38.05 241.43-37.23 242.13-36.4 242.38-35.5L242.38-35.5Q241.03-35.5 239.73-34.33 238.43-33.15 237.33-31L237.33-31Q235.48-27.4 234.58-22.25 233.68-17.1 233.68-12.55L233.68-12.55Q233.68-7.1 235.08-4 236.48-0.9 239.38-0.9L239.38-0.9Q241.88-0.9 243.61-3.1 245.33-5.3 246.03-9L246.03-9ZM254.33 0.35Q252.58 0.35 251.21-0.83 249.83-2 249.83-4.3L249.83-4.3Q250.58-6.7 252.43-14.95L252.43-14.95Q253.33-19 253.53-19.8L253.53-19.8Q254.18-20.9 255.33-20.9L255.33-20.9Q256.08-20.9 256.08-20.4L256.08-20.4Q255.73-19.15 255.11-16.43 254.48-13.7 254.13-12.15L254.13-12.15Q252.78-5.95 252.28-4.2L252.28-4.2Q252.28-3.05 252.96-2.43 253.63-1.8 254.73-1.8L254.73-1.8Q257.23-1.8 259.76-3.58 262.28-5.35 264.21-7.7 266.13-10.05 267.08-11.75L267.08-11.75Q267.38-11.65 267.48-11.43 267.58-11.2 267.58-10.65L267.58-10.65Q267.58-9.9 267.08-9.1L267.08-9.1Q264.38-4.85 261.03-2.25 257.68 0.35 254.33 0.35L254.33 0.35ZM256.63-27.15Q255.93-27.15 255.53-27.63 255.13-28.1 255.13-28.85L255.13-28.85Q255.13-29.85 255.78-30.68 256.43-31.5 257.43-31.5L257.43-31.5Q258.23-31.5 258.61-31 258.98-30.5 258.98-29.8L258.98-29.8Q258.98-28.8 258.31-27.98 257.63-27.15 256.63-27.15L256.63-27.15ZM285.63-14Q286.13-14 286.43-13.53 286.73-13.05 286.73-12.35L286.73-12.35Q286.73-11.45 286.23-10.45L286.23-10.45Q284.83-7.5 282.23-5.03 279.63-2.55 276.6-1.1 273.58 0.35 270.98 0.35L270.98 0.35Q265.68 0.35 265.68-5.8L265.68-5.8Q265.68-10.1 268.03-19.63 270.38-29.15 274.83-44.9L274.83-44.9Q275.78-48.15 276.9-49.7 278.03-51.25 279.48-51.25L279.48-51.25Q280.53-51.25 281.5-50.53 282.48-49.8 283.13-48.3 283.78-46.8 283.78-44.6L283.78-44.6Q283.78-41.05 282.1-35.6 280.43-30.15 277.08-24.1 273.73-18.05 269.03-12.9L269.03-12.9Q268.18-8.5 268.18-6.35L268.18-6.35Q268.18-3.95 269.15-2.93 270.13-1.9 271.88-1.9L271.88-1.9Q274.33-1.9 277.1-3.55 279.88-5.2 282.18-8 284.48-10.8 285.63-14L285.63-14ZM276.13-41.75Q271.93-26.65 269.78-16.7L269.78-16.7Q273.48-21.35 276.15-26.85 278.83-32.35 280.15-37.15 281.48-41.95 281.48-44.7L281.48-44.7Q281.48-46.25 281.03-47.38 280.58-48.5 279.53-48.5L279.53-48.5Q278.93-48.5 278.1-47.25 277.28-46 276.13-41.75L276.13-41.75ZM304.53-11.95Q305.43-11.8 305.43-10.95L305.43-10.95Q305.43-8.95 302.85-6.28 300.28-3.6 296.78-1.68 293.28 0.25 290.93 0.25L290.93 0.25Q288.68 0.25 287.03-0.93 285.38-2.1 284.5-3.55 283.63-5 283.63-5.7L283.63-5.7Q284.43-8.55 285.38-13.6L285.38-13.6 285.93-16.4Q286.13-17.4 287.38-18.48 288.63-19.55 290.18-20.28 291.73-21 292.68-21L292.68-21Q293.43-21 294.5-20.53 295.58-20.05 296.4-19.05 297.23-18.05 297.23-16.5L297.23-16.5Q297.23-14.7 296.03-13.1 294.83-11.5 292.48-10.5 290.13-9.5 286.83-9.5L286.83-9.5 286.13-6.15Q286.13-5.7 286.65-4.65 287.18-3.6 288.35-2.75 289.53-1.9 291.33-1.9L291.33-1.9Q293.73-1.9 296.38-3.48 299.03-5.05 301.23-7.4 303.43-9.75 304.53-11.95L304.53-11.95ZM292.28-18.95Q291.68-18.95 290.73-18.45 289.78-17.95 289-17.2 288.23-16.45 288.08-15.8L288.08-15.8Q287.58-13.55 287.18-11.25L287.18-11.25Q291.03-11.4 292.98-12.78 294.93-14.15 294.93-15.9L294.93-15.9Q294.93-17.15 294.03-18.05 293.13-18.95 292.28-18.95L292.28-18.95ZM305.17 0.65Q302.77 0.65 301.1-0.5 299.42-1.65 299.42-3.15L299.42-3.15Q299.42-3.95 299.87-4.45 300.32-4.95 300.87-5.05L300.87-5.05Q301.42-3.15 302.67-2.2 303.92-1.25 305.72-1.25L305.72-1.25Q307.97-1.25 309.32-2.53 310.67-3.8 310.67-5.5L310.67-5.5Q310.67-6.75 309.95-7.7 309.22-8.65 307.77-9.9L307.77-9.9Q306.17-11.3 305.4-12.33 304.62-13.35 304.62-14.8L304.62-14.8Q304.62-16.35 305.6-17.75 306.57-19.15 308.1-20 309.62-20.85 311.27-20.85L311.27-20.85Q312.72-20.85 313.95-20.23 315.17-19.6 315.17-18.55L315.17-18.55Q315.17-17.55 313.97-16.45L313.97-16.45Q313.32-17.6 312.37-18.23 311.42-18.85 310.37-18.85L310.37-18.85Q308.77-18.85 307.95-17.68 307.12-16.5 307.12-15.35L307.12-15.35Q307.12-14.4 307.77-13.65 308.42-12.9 309.82-11.75L309.82-11.75Q311.52-10.3 312.42-9.15 313.32-8 313.32-6.45L313.32-6.45Q313.32-4.8 312.25-3.15 311.17-1.5 309.3-0.43 307.42 0.65 305.17 0.65L305.17 0.65Z" opacity="1" transform="matrix(1,0,0,1,0,0)" fill="#111111" class="wordmark-text-0" data-fill-palette-color="primary" id="text-0"></path></svg></g></svg></g><g transform="matrix(1,0,0,1,163.310208,81.28968275438828)"><svg viewBox="0 0 232.209792 16.677320814862266" height="16.677320814862266" width="232.209792"><g transform="matrix(1,0,0,1,0,0)"><svg width="232.209792" viewBox="0.35 -38.45 702.36 50.45" height="16.677320814862266" data-palette-color="#111111"><path d="M8.6-1.05L8.6-1.05 8.6-31.6 2.35-31.6Q1.15-31.65 0.8-32.25L0.8-32.25Q0.35-32.95 0.35-34.75L0.35-34.75Q0.35-37.6 2.05-37.6L2.05-37.6 20.25-37.6Q23.15-37.6 23.15-36.05L23.15-36.05Q23.15-31.6 20.75-31.6L20.75-31.6 15.15-31.65 15.6-21.5 15.65-1.15Q15.65-0.2 15.6 0.1L15.6 0.1Q15.4 0.8 13.65 0.8L13.65 0.8Q8.6 0.8 8.6-1.05ZM38.6-25.6L38.6-25.6Q42.3-25.6 44.02-23.3 45.75-21 45.75-15.2L45.75-15.2 45.75 0Q45.75 0.3 45.7 0.4L45.7 0.4Q45.45 0.8 43.77 0.8 42.1 0.8 40.35 0.55 38.6 0.3 38.6 0L38.6 0 38.55-15.2Q38.55-20.8 37.75-20.8L37.75-20.8Q35.95-20.8 32.95-19L32.95-19 32.95 0Q32.95 0.3 32.9 0.4L32.9 0.4Q32.65 0.8 30.97 0.8 29.3 0.8 27.52 0.55 25.75 0.3 25.75 0L25.75 0 25.75-37.6Q25.75-38.4 27.52-38.4 29.3-38.4 30.6-38.18 31.9-37.95 31.95-37.6L31.95-37.6 32.85-23.15Q36.65-25.6 38.6-25.6ZM58.05 0.8L58.05 0.8Q52.7 0.8 50.62-2.1 48.55-5 48.55-12.5L48.55-12.5Q48.55-17.9 49.5-20.73 50.45-23.55 52.37-24.58 54.3-25.6 58.05-25.6 61.8-25.6 63.72-24.55 65.65-23.5 66.55-20.65 67.45-17.8 67.45-12.55L67.45-12.55Q67.45-12.25 67.45-11.95 67.45-11.65 66.27-11.4 65.1-11.15 63.45-11.15L63.45-11.15 55.75-11.15Q55.85-5.3 56.6-4.5L56.6-4.5Q57.05-4.1 58.05-4.1L58.05-4.1Q64.6-4.1 67-4.75L67-4.75Q67.1-4.8 67.15-4.8L67.15-4.8Q67.5-4.9 67.72-4.4 67.95-3.9 67.95-2.05 67.95-0.2 67.15 0L67.15 0Q65.1 0.8 58.05 0.8ZM55.75-19.05L55.75-19.05 55.75-15.15 60.8-15.15Q60.6-20.95 59.65-20.95L59.65-20.95Q57.95-20.95 56.85-20.45 55.75-19.95 55.75-19.05ZM95.89-38.4L95.89-38.4Q101.34-38.4 104.14-36.85 106.94-35.3 108.19-31.23 109.44-27.15 109.44-19.15L109.44-19.15Q109.44-8.05 106.54-3.63 103.64 0.8 95.89 0.8L95.89 0.8Q93.99 0.8 84.94 0L84.94 0 84.94-37.55Q92.54-38.4 95.89-38.4ZM98.54-32.45L98.54-32.45Q94.19-32.45 93.09-32.27 91.99-32.1 91.99-31.3L91.99-31.3 91.99-6.2Q91.99-5.65 92.67-5.55 93.34-5.45 95.42-5.45 97.49-5.45 98.34-5.68 99.19-5.9 99.92-6.48 100.64-7.05 100.89-8.7L100.89-8.7Q101.39-11.9 101.39-18.6L101.39-18.6Q101.39-32.45 98.54-32.45ZM122.59 0.8L122.59 0.8Q117.24 0.8 115.16-2.1 113.09-5 113.09-12.5L113.09-12.5Q113.09-17.9 114.04-20.73 114.99-23.55 116.91-24.58 118.84-25.6 122.59-25.6 126.34-25.6 128.26-24.55 130.19-23.5 131.09-20.65 131.99-17.8 131.99-12.55L131.99-12.55Q131.99-12.25 131.99-11.95 131.99-11.65 130.81-11.4 129.64-11.15 127.99-11.15L127.99-11.15 120.29-11.15Q120.39-5.3 121.14-4.5L121.14-4.5Q121.59-4.1 122.59-4.1L122.59-4.1Q129.14-4.1 131.54-4.75L131.54-4.75Q131.64-4.8 131.69-4.8L131.69-4.8Q132.04-4.9 132.26-4.4 132.49-3.9 132.49-2.05 132.49-0.2 131.69 0L131.69 0Q129.64 0.8 122.59 0.8ZM120.29-19.05L120.29-19.05 120.29-15.15 125.34-15.15Q125.14-20.95 124.19-20.95L124.19-20.95Q122.49-20.95 121.39-20.45 120.29-19.95 120.29-19.05ZM142.94-21.55L142.94 0Q142.94 0.3 142.84 0.4L142.84 0.4Q142.63 0.8 140.99 0.8 139.34 0.8 137.76 0.55 136.19 0.3 136.19 0L136.19 0 136.19-37.6Q136.19-38.4 137.94-38.4 139.69-38.4 140.84-38.18 141.99-37.95 142.03-37.6L142.03-37.6 142.94-21.55ZM147.38 0L147.38 0 147.38-24.8Q147.38-25.6 149.18-25.6 150.98-25.6 152.58-25.35 154.18-25.1 154.18-24.8L154.18-24.8 154.18 0Q154.18 0.3 154.13 0.4L154.13 0.4Q153.88 0.8 152.23 0.8 150.58 0.8 148.98 0.55 147.38 0.3 147.38 0ZM150.48-31.2Q146.88-31.2 146.88-34.8 146.88-38.4 150.48-38.4 154.08-38.4 154.08-34.8 154.08-31.2 150.48-31.2ZM174.88-23.9L174.93-23.9Q175.28-23.7 175.28-22.98 175.28-22.25 174.93-21.05L174.93-21.05Q174.28-18.85 173.53-19.2L173.53-19.2 173.48-19.2 171.73-19.9Q170.28-20.55 168.2-20.55 166.13-20.55 165.56-18.85 164.98-17.15 164.98-12.3 164.98-7.45 165.7-5.78 166.43-4.1 168.48-4.1L168.48-4.1Q171.43-4.1 173.08-4.45 174.73-4.8 174.78-4.8L174.78-4.8Q175.13-4.9 175.35-4.4 175.58-3.9 175.58-2.05 175.58-0.2 174.78 0L174.78 0Q171.68 0.8 168.68 0.8L168.68 0.8Q162.63 0.8 160.41-2.08 158.18-4.95 158.18-12.5L158.18-12.5Q158.18-17.95 159.16-20.73 160.13-23.5 162.28-24.55 164.43-25.6 168.53-25.6 172.63-25.6 174.88-23.9L174.88-23.9ZM179.28 0L179.28 0 179.28-24.8Q179.28-25.6 181.08-25.6 182.88-25.6 184.48-25.35 186.08-25.1 186.08-24.8L186.08-24.8 186.08 0Q186.08 0.3 186.03 0.4L186.03 0.4Q185.78 0.8 184.13 0.8 182.48 0.8 180.88 0.55 179.28 0.3 179.28 0ZM182.38-31.2Q178.78-31.2 178.78-34.8 178.78-38.4 182.38-38.4 185.98-38.4 185.98-34.8 185.98-31.2 182.38-31.2ZM190.13-12.5L190.13-12.5Q190.13-17.95 191.08-20.75 192.03-23.55 194.08-24.58 196.13-25.6 200.13-25.6 204.13-25.6 206.18-24.58 208.23-23.55 209.18-20.75 210.13-17.95 210.13-12.5L210.13-12.5Q210.13-5 207.98-2.1 205.83 0.8 200.13 0.8 194.43 0.8 192.28-2.1 190.13-5 190.13-12.5ZM196.93-12.5L196.93-12.5Q196.93-4.1 198.53-4.1L198.53-4.1Q200.72-4.1 201.78-4.8L201.78-4.8Q202.33-5.2 202.53-6.25L202.53-6.25Q202.93-8.35 202.93-12.5L202.93-12.5Q202.93-20.8 201.33-20.8L201.33-20.8Q198.33-20.8 197.63-19.43 196.93-18.05 196.93-12.5ZM221.22 0.8L221.22 0.8Q217.52 0.8 215.8-1.5 214.07-3.8 214.07-9.6L214.07-9.6 214.07-24.8Q214.07-25.6 215.9-25.6 217.72-25.6 219.47-25.35 221.22-25.1 221.22-24.8L221.22-24.8 221.27-9.6Q221.27-4 222.07-4L222.07-4Q223.87-4 226.87-5.8L226.87-5.8 226.87-24.8Q226.87-25.6 228.7-25.6 230.52-25.6 232.3-25.35 234.07-25.1 234.07-24.8L234.07-24.8 234.07 0Q234.07 0.3 233.97 0.4L233.97 0.4Q233.77 0.8 231.4 0.8 229.02 0.8 228.47 0L228.47 0 227.42-1.55Q223.92 0.8 221.22 0.8ZM252.47-18.9L252.47-18.9 252.17-19 250.27-19.95Q248.12-20.8 246.57-20.8L246.57-20.8Q244.32-20.7 244.32-18.65L244.32-18.65Q244.32-17.85 245.2-17.35 246.07-16.85 246.62-16.57 247.17-16.3 248.22-15.8L248.22-15.8Q251.97-14.2 253.8-12.25 255.62-10.3 255.62-8.4L255.62-8.4Q255.62-4.25 253.42-1.73 251.22 0.8 247.45 0.8 243.67 0.8 241.52-0.2 239.37-1.2 237.92-3.05L237.92-3.05Q237.72-3.15 237.72-3.35 237.72-3.55 237.8-3.85 237.87-4.15 238.97-5.48 240.07-6.8 240.72-6.8L240.72-6.8Q240.92-6.8 241.12-6.6L241.12-6.6Q243.77-4.5 246.27-4.5L246.27-4.5Q247.67-4.5 248.37-5.3 249.07-6.1 249.07-7.05 249.07-8 248.27-8.6 247.47-9.2 246.3-9.78 245.12-10.35 245.02-10.4 244.92-10.45 244.75-10.55 244.57-10.65 244.42-10.7L244.42-10.7Q241.87-11.95 240.1-13.83 238.32-15.7 238.32-18L238.32-18Q238.32-22 240.4-23.8 242.47-25.6 246.97-25.6L246.97-25.6Q248.67-25.6 250.22-25.2L250.22-25.2Q252.32-24.65 253.22-23.9L253.22-23.9 253.27-23.9Q253.67-23.65 253.75-23.3 253.82-22.95 253.67-21.8L253.67-21.8Q253.17-18.9 252.47-18.9ZM271.97-37L271.97-37Q271.97-38.4 275.34-38.4 278.72-38.4 279.17-36.55L279.17-36.55 285.92-9.7 290.72-31.6Q290.92-32.6 291.57-32.95 292.22-33.3 293.77-33.3L293.77-33.3Q297.77-33.3 298.32-31.15L298.32-31.15 303.72-9.7 309.67-36.55Q309.92-37.65 310.57-38.02 311.22-38.4 313.12-38.4 315.02-38.4 315.59-38.15 316.17-37.9 316.17-37L316.17-37Q316.17-36.8 316.12-36.55L316.12-36.55 307.77-1Q307.52 0.05 307.04 0.43 306.57 0.8 305.52 0.8L305.52 0.8Q300.17 0.8 299.67-1L299.67-1 294.37-18.75 289.87-1.1Q289.62 0 289.12 0.4 288.62 0.8 287.62 0.8L287.62 0.8Q282.27 0.8 281.82-1L281.82-1 272.02-36.7Q271.97-36.85 271.97-37ZM319.61-12.5L319.61-12.5Q319.61-17.95 320.56-20.75 321.51-23.55 323.56-24.58 325.61-25.6 329.61-25.6 333.61-25.6 335.66-24.58 337.71-23.55 338.66-20.75 339.61-17.95 339.61-12.5L339.61-12.5Q339.61-5 337.46-2.1 335.31 0.8 329.61 0.8 323.91 0.8 321.76-2.1 319.61-5 319.61-12.5ZM326.41-12.5L326.41-12.5Q326.41-4.1 328.01-4.1L328.01-4.1Q330.21-4.1 331.26-4.8L331.26-4.8Q331.81-5.2 332.01-6.25L332.01-6.25Q332.41-8.35 332.41-12.5L332.41-12.5Q332.41-20.8 330.81-20.8L330.81-20.8Q327.81-20.8 327.11-19.43 326.41-18.05 326.41-12.5ZM348.56-24.7L349.56-22.8Q353.66-25.6 354.99-25.6 356.31-25.6 357.39-25.1 358.46-24.6 358.96-24.1L358.96-24.1 359.41-23.65Q358.66-20.45 358.26-19.65 357.86-18.85 357.19-18.85 356.51-18.85 355.46-19.4 354.41-19.95 353.56-19.95 352.71-19.95 350.16-18.4L350.16-18.4 350.16 0Q350.16 0.3 350.06 0.4L350.06 0.4Q349.86 0.8 348.21 0.8 346.56 0.8 345.14 0.55 343.71 0.3 343.71 0L343.71 0 343.71-24.8Q343.71-25.6 345.96-25.6 348.21-25.6 348.56-24.8L348.56-24.8 348.56-24.7ZM368.86-21.55L368.86 0Q368.86 0.3 368.76 0.4L368.76 0.4Q368.56 0.8 366.91 0.8 365.26 0.8 363.68 0.55 362.11 0.3 362.11 0L362.11 0 362.11-37.6Q362.11-38.4 363.86-38.4 365.61-38.4 366.76-38.18 367.91-37.95 367.96-37.6L367.96-37.6 368.86-21.55ZM378.96 0.8L378.96 0.8Q375.26 0.8 373.53-2.23 371.81-5.25 371.81-12.75 371.81-20.25 373.98-22.93 376.16-25.6 382.21-25.6L382.21-25.6 384.61-25.6 384.61-37.6Q384.61-38.4 386.36-38.4 388.11-38.4 389.26-38.18 390.41-37.95 390.46-37.6L390.46-37.6 391.31-21.65 391.31 0Q391.31 0.3 391.26 0.4L391.26 0.4Q391.01 0.8 389.41 0.8 387.81 0.8 386.68 0.58 385.56 0.35 385.56 0L385.56 0 384.61-1.55Q383.16-0.6 382.56-0.2L382.56-0.2Q380.91 0.8 378.96 0.8ZM382.21-20.8Q380.36-20.8 379.68-19.28 379.01-17.75 379.01-14.13 379.01-10.5 379.03-9.35 379.06-8.2 379.11-6.7L379.11-6.7Q379.21-4 379.81-4L379.81-4Q381.61-4 384.61-5.8L384.61-5.8 384.61-20.8 382.21-20.8ZM408.65-18.55L408.65-18.55Q408.65-26.5 409.9-30.75 411.15-35 413.88-36.7 416.6-38.4 421.75-38.4 426.9-38.4 429.63-36.7 432.35-35 433.58-30.78 434.8-26.55 434.8-18.55L434.8-18.55Q434.8-7.6 432-3.4 429.2 0.8 421.75 0.8 414.3 0.8 411.48-3.4 408.65-7.6 408.65-18.55ZM417-27.88Q416.7-26 416.65-24.08 416.6-22.15 416.6-17.55 416.6-12.95 416.9-9.85 417.2-6.75 417.7-5.78 418.2-4.8 419.05-4.8L419.05-4.8Q423.45-4.8 424.8-5.7L424.8-5.7Q425.3-6.05 425.78-6.85 426.25-7.65 426.45-8.5 426.65-9.35 426.8-11L426.8-11Q427-13.15 427-18.73 427-24.3 426.73-27.53 426.45-30.75 425.93-31.93 425.4-33.1 424.55-33.1L424.55-33.1Q422.55-33.1 421.33-32.93 420.1-32.75 419.15-32.08 418.2-31.4 417.75-30.58 417.3-29.75 417-27.88ZM456.85-31.95L455-32.7Q453.55-33.35 451.5-33.35 449.45-33.35 448.85-31.45 448.25-29.55 448.25-24.8L448.25-24.8 453.05-24.8Q453.85-24.8 453.85-22.8 453.85-20.8 453.05-20.8L453.05-20.8 448.65-20.8 448.65 11.2Q448.65 11.5 448.55 11.6L448.55 11.6Q448.35 12 446.67 12 445 12 443.3 11.75 441.6 11.5 441.6 11.2L441.6 11.2 441.6-20.8 437.6-20.8Q437-20.8 436.92-21.08 436.85-21.35 436.85-21.7L436.85-21.7Q436.85-23.85 437.6-24L437.6-24 441.6-24.8Q441.6-32.85 443.72-35.63 445.85-38.4 451.95-38.4L451.95-38.4Q455.9-38.4 458.15-36.7L458.15-36.7 458.2-36.7Q458.65-36.45 458.65-35.83 458.65-35.2 458.45-34.4 458.25-33.6 457.97-32.95 457.7-32.3 457.45-32.05 457.2-31.8 457.02-31.85 456.85-31.9 456.85-31.95L456.85-31.95ZM483.29-38.45L483.29-38.45Q486.74-38.45 487.04-36.9L487.04-36.9 490.44-21.55 493.89-1.1Q493.99-0.6 493.99-0.18 493.99 0.25 493.74 0.53 493.49 0.8 492.04 0.8L492.04 0.8Q487.59 0.8 487.29-1.1L487.29-1.1 485.54-11.4 478.54-11.4 476.99-1.05Q476.84 0 476.62 0.35 476.39 0.7 475.99 0.75 475.59 0.8 474.69 0.8L474.69 0.8 473.29 0.8Q471.54 0.8 471.09 0.6L471.09 0.6Q469.99 0.2 469.84-0.3L469.84-0.3Q469.79-0.55 469.79-0.75 469.79-0.95 470.84-7.35 471.89-13.75 473.42-22.6 474.94-31.45 475.42-34.2 475.89-36.95 475.94-37.3L475.94-37.3Q476.14-38.45 483.29-38.45ZM484.44-17.45L481.79-31.9 479.49-17.45 484.44-17.45ZM504.34-21.55L504.34 0Q504.34 0.3 504.24 0.4L504.24 0.4Q504.04 0.8 502.39 0.8 500.74 0.8 499.17 0.55 497.59 0.3 497.59 0L497.59 0 497.59-37.6Q497.59-38.4 499.34-38.4 501.09-38.4 502.24-38.18 503.39-37.95 503.44-37.6L503.44-37.6 504.34-21.55ZM515.44-21.55L515.44 0Q515.44 0.3 515.34 0.4L515.34 0.4Q515.14 0.8 513.49 0.8 511.84 0.8 510.26 0.55 508.69 0.3 508.69 0L508.69 0 508.69-37.6Q508.69-38.4 510.44-38.4 512.19-38.4 513.34-38.18 514.49-37.95 514.54-37.6L514.54-37.6 515.44-21.55ZM552.63-5.9L552.63-5.9Q553.88-5.9 553.88-4.3 553.88-2.7 553.83-1.9L553.83-1.9Q553.63-0.1 552.23 0.15L552.23 0.15Q547.78 0.8 545.63 0.8L545.63 0.8Q538.18 0.8 535.38-3.4 532.58-7.6 532.58-18.55L532.58-18.55Q532.58-26.55 533.81-30.78 535.03-35 537.76-36.7 540.48-38.4 545.91-38.4 551.33-38.4 553.83-36.7L553.83-36.7Q554.33-36.35 554.33-35.85 554.33-35.35 553.86-33.98 553.38-32.6 552.96-32.02 552.53-31.45 552.08-31.45 551.63-31.45 551.38-31.5L551.38-31.5Q547.63-32.25 544.91-32.25 542.18-32.25 541.36-29.25 540.53-26.25 540.53-19.53 540.53-12.8 540.88-10.15 541.23-7.5 542.18-6.45 543.13-5.4 545.21-5.4 547.28-5.4 549.91-5.65 552.53-5.9 552.63-5.9ZM564.98 0.8L564.98 0.8Q561.28 0.8 559.55-1.5 557.83-3.8 557.83-9.6L557.83-9.6 557.83-24.8Q557.83-25.6 559.65-25.6 561.48-25.6 563.23-25.35 564.98-25.1 564.98-24.8L564.98-24.8 565.03-9.6Q565.03-4 565.83-4L565.83-4Q567.63-4 570.63-5.8L570.63-5.8 570.63-24.8Q570.63-25.6 572.45-25.6 574.28-25.6 576.05-25.35 577.83-25.1 577.83-24.8L577.83-24.8 577.83 0Q577.83 0.3 577.73 0.4L577.73 0.4Q577.53 0.8 575.15 0.8 572.78 0.8 572.23 0L572.23 0 571.18-1.55Q567.68 0.8 564.98 0.8ZM582.43 0L582.43 0 582.43-24.8Q582.43-25.6 584.23-25.6 586.03-25.6 587.63-25.35 589.23-25.1 589.23-24.8L589.23-24.8 589.23 0Q589.23 0.3 589.18 0.4L589.18 0.4Q588.93 0.8 587.28 0.8 585.63 0.8 584.03 0.55 582.43 0.3 582.43 0ZM585.53-31.2Q581.93-31.2 581.93-34.8 581.93-38.4 585.53-38.4 589.13-38.4 589.13-34.8 589.13-31.2 585.53-31.2ZM607.57-18.9L607.57-18.9 607.27-19 605.37-19.95Q603.22-20.8 601.67-20.8L601.67-20.8Q599.42-20.7 599.42-18.65L599.42-18.65Q599.42-17.85 600.3-17.35 601.17-16.85 601.72-16.57 602.27-16.3 603.32-15.8L603.32-15.8Q607.07-14.2 608.9-12.25 610.72-10.3 610.72-8.4L610.72-8.4Q610.72-4.25 608.52-1.73 606.32 0.8 602.55 0.8 598.77 0.8 596.62-0.2 594.47-1.2 593.02-3.05L593.02-3.05Q592.82-3.15 592.82-3.35 592.82-3.55 592.9-3.85 592.97-4.15 594.07-5.48 595.17-6.8 595.82-6.8L595.82-6.8Q596.02-6.8 596.22-6.6L596.22-6.6Q598.87-4.5 601.37-4.5L601.37-4.5Q602.77-4.5 603.47-5.3 604.17-6.1 604.17-7.05 604.17-8 603.37-8.6 602.57-9.2 601.4-9.78 600.22-10.35 600.12-10.4 600.02-10.45 599.85-10.55 599.67-10.65 599.52-10.7L599.52-10.7Q596.97-11.95 595.2-13.83 593.42-15.7 593.42-18L593.42-18Q593.42-22 595.5-23.8 597.57-25.6 602.07-25.6L602.07-25.6Q603.77-25.6 605.32-25.2L605.32-25.2Q607.42-24.65 608.32-23.9L608.32-23.9 608.37-23.9Q608.77-23.65 608.85-23.3 608.92-22.95 608.77-21.8L608.77-21.8Q608.27-18.9 607.57-18.9ZM614.52 0L614.52 0 614.52-24.8Q614.52-25.6 616.32-25.6 618.12-25.6 619.72-25.35 621.32-25.1 621.32-24.8L621.32-24.8 621.32 0Q621.32 0.3 621.27 0.4L621.27 0.4Q621.02 0.8 619.37 0.8 617.72 0.8 616.12 0.55 614.52 0.3 614.52 0ZM617.62-31.2Q614.02-31.2 614.02-34.8 614.02-38.4 617.62-38.4 621.22-38.4 621.22-34.8 621.22-31.2 617.62-31.2ZM638.62-25.6L638.62-25.6Q642.32-25.6 644.04-23.3 645.77-21 645.77-15.2L645.77-15.2 645.77 0Q645.77 0.3 645.72 0.4L645.72 0.4Q645.47 0.8 643.79 0.8 642.12 0.8 640.37 0.55 638.62 0.3 638.62 0L638.62 0 638.57-15.2Q638.57-20.8 637.77-20.8L637.77-20.8Q635.97-20.8 632.97-19L632.97-19 632.97 0Q632.97 0.3 632.92 0.4L632.92 0.4Q632.67 0.8 630.99 0.8 629.32 0.8 627.54 0.55 625.77 0.3 625.77 0L625.77 0 625.77-24.8Q625.77-25.6 627.77-25.6L627.77-25.6Q630.92-25.6 631.37-24.8L631.37-24.8Q631.37-24.7 631.42-24.7L631.42-24.7 632.37-22.8Q636.57-25.6 638.62-25.6ZM659.27 0.8L659.27 0.8Q653.92 0.8 651.84-2.1 649.77-5 649.77-12.5L649.77-12.5Q649.77-17.9 650.72-20.73 651.67-23.55 653.59-24.58 655.52-25.6 659.27-25.6 663.02-25.6 664.94-24.55 666.87-23.5 667.77-20.65 668.67-17.8 668.67-12.55L668.67-12.55Q668.67-12.25 668.67-11.95 668.67-11.65 667.49-11.4 666.32-11.15 664.67-11.15L664.67-11.15 656.97-11.15Q657.07-5.3 657.82-4.5L657.82-4.5Q658.27-4.1 659.27-4.1L659.27-4.1Q665.82-4.1 668.22-4.75L668.22-4.75Q668.32-4.8 668.37-4.8L668.37-4.8Q668.72-4.9 668.94-4.4 669.17-3.9 669.17-2.05 669.17-0.2 668.37 0L668.37 0Q666.32 0.8 659.27 0.8ZM656.97-19.05L656.97-19.05 656.97-15.15 662.02-15.15Q661.82-20.95 660.87-20.95L660.87-20.95Q659.17-20.95 658.07-20.45 656.97-19.95 656.97-19.05ZM686.76-18.9L686.76-18.9 686.46-19 684.56-19.95Q682.41-20.8 680.86-20.8L680.86-20.8Q678.61-20.7 678.61-18.65L678.61-18.65Q678.61-17.85 679.49-17.35 680.36-16.85 680.91-16.57 681.46-16.3 682.51-15.8L682.51-15.8Q686.26-14.2 688.09-12.25 689.91-10.3 689.91-8.4L689.91-8.4Q689.91-4.25 687.71-1.73 685.51 0.8 681.74 0.8 677.96 0.8 675.81-0.2 673.66-1.2 672.21-3.05L672.21-3.05Q672.01-3.15 672.01-3.35 672.01-3.55 672.09-3.85 672.16-4.15 673.26-5.48 674.36-6.8 675.01-6.8L675.01-6.8Q675.21-6.8 675.41-6.6L675.41-6.6Q678.06-4.5 680.56-4.5L680.56-4.5Q681.96-4.5 682.66-5.3 683.36-6.1 683.36-7.05 683.36-8 682.56-8.6 681.76-9.2 680.59-9.78 679.41-10.35 679.31-10.4 679.21-10.45 679.04-10.55 678.86-10.65 678.71-10.7L678.71-10.7Q676.16-11.95 674.39-13.83 672.61-15.7 672.61-18L672.61-18Q672.61-22 674.69-23.8 676.76-25.6 681.26-25.6L681.26-25.6Q682.96-25.6 684.51-25.2L684.51-25.2Q686.61-24.65 687.51-23.9L687.51-23.9 687.56-23.9Q687.96-23.65 688.04-23.3 688.11-22.95 687.96-21.8L687.96-21.8Q687.46-18.9 686.76-18.9ZM701.91-36.95L702.71-36.15 699.46-9.9 694.51-10.45 693.71-11.25 694.51-26.6 696.11-37.6 701.91-36.95ZM696.11 0.8Q692.51 0.8 692.51-2.8 692.51-6.4 696.11-6.4 699.71-6.4 699.71-2.8 699.71 0.8 696.11 0.8Z" opacity="1" transform="matrix(1,0,0,1,0,0)" fill="#111111" class="slogan-text-1" data-fill-palette-color="secondary" id="text-1"></path></svg></g></svg></g></svg></g></svg></g><g transform="matrix(1,0,0,1,434.3334369284837,0)"><svg viewBox="0 0 244.43135999999998 244.43135999999998" height="244.43135999999998" width="244.43135999999998"><g><svg viewBox="0 0 244.43135999999998 244.43135999999998" height="244.43135999999998" width="244.43135999999998"><g transform="matrix(1,0,0,1,64.60265593644992,64.60265593644992)"><svg viewBox="0 0 115.22604812710014 115.22604812710014" height="115.22604812710014" width="115.22604812710014"><g><svg xmlns="http://www.w3.org/2000/svg" xmlns:xlink="http://www.w3.org/1999/xlink" version="1.1" x="0" y="0" viewBox="17.9 17.9 64.19999999999999 64.19999999999999" enable-background="new 0 0 100 100" xml:space="preserve" height="115.22604812710014" width="115.22604812710014" class="icon-dxe-0" data-fill-palette-color="accent" id="dxe-0"><path fill="#111111" d="M32 45.5C34.4 45.5 36.4 43.5 36.4 41.1S34.4 36.7 32 36.7 27.6 38.7 27.6 41.1 29.6 45.5 32 45.5" data-fill-palette-color="accent"></path><path fill="#111111" d="M63.6 41.2C63.6 43.6 65.6 45.6 68 45.6S72.4 43.6 72.4 41.2 70.4 36.8 68 36.8 63.6 38.7 63.6 41.2" data-fill-palette-color="accent"></path><path fill="#111111" d="M50 17.9C32.3 17.9 17.9 32.3 17.9 50S32.3 82.1 50 82.1 82.1 67.7 82.1 50 67.7 17.9 50 17.9M50 79.1C33.9 79.1 20.9 66 20.9 50S33.9 20.9 50 20.9 79.1 33.9 79.1 50 66.1 79.1 50 79.1" data-fill-palette-color="accent"></path><path fill="#111111" d="M71.9 56.7L67.8 53.3C66.8 52.5 65.6 52 64.3 52 62.7 52 61.1 52.7 60.1 54 58.1 56.3 58.5 59.8 60.8 61.8L65.1 65.4C61.1 69.3 55.7 71.6 50 71.6 38.1 71.6 28.5 62 28.5 50.1H26.5C26.5 63 37 73.5 50 73.5 56.2 73.5 62.2 71 66.6 66.6L67.2 65.9 67.9 65.1C69.7 62.9 71.2 60.5 72.1 57.7L72.3 57zM61.6 55.2L62.1 54.7C63.4 53.7 65.3 53.7 66.5 54.7L70 57.6C69.2 60 68 62 66.4 63.8L62 60.2C60.6 58.9 60.4 56.7 61.6 55.2" data-fill-palette-color="accent"></path></svg></g></svg></g><g id="text-0"><path d="M43.821 66.245c0.346-0.236 0.847-0.192 1.503 0.134v0c0.804 0.399 1.512 1.001 2.122 1.806 0.619 0.802 1.013 1.703 1.182 2.703 0.172 0.995 0.018 1.975-0.461 2.941v0c-0.796 1.603-2.145 2.459-4.047 2.567-1.902 0.108-4.005-0.409-6.308-1.554v0c-1.373-0.682-2.781-1.56-4.225-2.635-1.443-1.075-2.751-2.161-3.924-3.26v0c0.787 1.415 1.747 3.038 2.879 4.868 1.124 1.833 3.136 5.021 6.037 9.563v0c0.533 0.831 0.966 1.329 1.299 1.494v0c0.103 0.051 0.21 0.083 0.319 0.093 0.106 0.017 0.188 0.04 0.246 0.069v0c0.103 0.051 0.138 0.169 0.104 0.352v0c-0.107 0.72-0.157 1.204-0.151 1.451 0.006 0.247 0 0.39-0.021 0.43v0c-0.063 0.126-0.222 0.187-0.477 0.182v0c-0.009-0.126-0.072-0.251-0.19-0.374-0.124-0.126-0.381-0.286-0.772-0.48v0c-1.005-0.499-3.03-1.261-6.073-2.285-3.044-1.025-5.899-1.945-8.567-2.761v0c2.656 2.959 4.794 5.554 6.416 7.784 1.627 2.233 2.78 4.446 3.46 6.639 0.677 2.199 0.551 4.234-0.379 6.107v0c-0.542 1.092-1.246 1.91-2.111 2.454-0.859 0.547-1.792 0.818-2.799 0.813-1.016-0.003-2.006-0.244-2.971-0.724v0c-0.862-0.428-1.566-0.957-2.113-1.586-0.547-0.63-0.908-1.257-1.085-1.882-0.177-0.625-0.162-1.144 0.043-1.558v0c0.103-0.207 0.236-0.345 0.399-0.414v0c0.59 1.596 1.646 2.773 3.168 3.528v0c1.252 0.622 2.389 0.785 3.41 0.49 1.023-0.301 1.836-1.058 2.438-2.27v0c0.788-1.586 0.876-3.314 0.265-5.186-0.613-1.866-1.748-3.894-3.403-6.084-1.653-2.196-4.09-5.133-7.313-8.81v0c-0.155-0.048-0.32-0.105-0.495-0.171-0.178-0.06-0.357-0.109-0.539-0.149v0c-0.25-0.074-0.731-0.23-1.442-0.47-0.718-0.242-1.241-0.444-1.568-0.606v0c-0.391-0.194-0.621-0.437-0.691-0.73-0.078-0.29-0.046-0.578 0.097-0.865v0c0.165-0.333 0.424-0.609 0.776-0.829 0.355-0.225 0.791-0.209 1.309 0.048v0c0.121 0.06 0.624 0.388 1.508 0.986v0c1.115 0.754 1.851 1.234 2.208 1.44v0c1.111 0.344 3.652 1.169 7.623 2.475v0l6.615 2.169c-5.43-8.334-9.177-14.295-11.24-17.884v0c-0.876-1.538-1.456-2.678-1.74-3.421-0.289-0.745-0.336-1.313-0.142-1.704v0c0.174-0.35 0.505-0.584 0.992-0.699 0.484-0.125 0.935-0.145 1.351-0.06v0c-0.274 0.552-0.302 1.214-0.085 1.988 0.217 0.774 0.656 1.608 1.315 2.501v0c1.103 1.5 2.623 2.961 4.561 4.381 1.937 1.421 3.84 2.595 5.707 3.522v0c2.246 1.116 4.15 1.703 5.71 1.762 1.561 0.059 2.638-0.509 3.232-1.704v0c0.511-1.028 0.488-2.121-0.069-3.279-0.554-1.163-1.518-2.265-2.892-3.306z" fill="#111111" data-fill-palette-color="accent"></path><path d="M59.802 46.951c0.214-0.213 0.531-0.107 0.952 0.316v0c0.746 0.751 1.201 1.868 1.364 3.352 0.168 1.488 0.061 2.978-0.32 4.469-0.376 1.496-0.956 2.633-1.738 3.41v0c-0.632 0.629-1.314 0.917-2.044 0.865-0.735-0.048-1.441-0.349-2.12-0.905v0c0.178 0.989 0.144 1.978-0.104 2.967-0.248 0.997-0.615 1.738-1.103 2.221v0c-0.423 0.421-0.984 0.693-1.683 0.818-0.703 0.129-1.391 0.116-2.061-0.04-0.671-0.156-1.203-0.414-1.597-0.774v0l-3.703-6.128c-0.293-0.486-0.461-1.151-0.504-1.995-0.047-0.848 0.069-1.701 0.348-2.557 0.275-0.861 0.706-1.583 1.292-2.166v0c0.751-0.746 1.661-1.149 2.732-1.21v0c-0.239-0.531-0.372-0.883-0.398-1.056-0.018-0.172 0.037-0.34 0.165-0.503v0l1.072-1.31 0.123-0.027c-0.065 0.589 0.103 1.232 0.504 1.927v0c1.376 2.395 2.414 4.13 3.114 5.208 0.704 1.082 1.398 1.966 2.081 2.653v0c0.678 0.682 1.264 1.095 1.758 1.237 0.499 0.138 0.959-0.004 1.383-0.425v0c0.519-0.516 0.932-1.347 1.239-2.493 0.303-1.142 0.402-2.416 0.297-3.823-0.1-1.402-0.45-2.746-1.049-4.031zM53.639 62.398c0.278-0.276 0.519-0.711 0.725-1.304 0.206-0.594 0.303-1.246 0.292-1.959-0.016-0.717-0.193-1.373-0.532-1.968v0l-1.53-2.468c-0.257-0.395-0.666-1.034-1.226-1.915-0.555-0.886-0.977-1.575-1.266-2.066v0c-0.912 0.002-1.693 0.326-2.344 0.973v0c-0.505 0.502-0.827 1.088-0.964 1.759-0.143 0.675-0.154 1.333-0.033 1.973 0.121 0.64 0.291 1.139 0.512 1.499v0l3.352 5.324c0.434 0.373 0.962 0.577 1.583 0.61 0.612 0.034 1.089-0.119 1.431-0.458z" fill="#111111" data-fill-palette-color="accent"></path><path d="M68.743 51.271c-0.908 0.626-1.83 0.939-2.766 0.937-0.932 0.004-1.595-0.279-1.989-0.849v0c-0.208-0.301-0.29-0.607-0.246-0.917 0.042-0.301 0.151-0.544 0.327-0.729v0c0.707 0.573 1.419 0.876 2.136 0.912 0.723 0.031 1.422-0.186 2.099-0.653v0c0.856-0.59 1.371-1.3 1.546-2.13 0.181-0.834 0.049-1.573-0.395-2.217v0c-0.324-0.47-0.747-0.79-1.269-0.959-0.522-0.17-1.222-0.303-2.099-0.4v0c-0.966-0.113-1.732-0.263-2.297-0.449-0.556-0.185-1.024-0.552-1.403-1.102v0c-0.404-0.586-0.604-1.271-0.598-2.054 0-0.779 0.18-1.53 0.538-2.253 0.353-0.719 0.842-1.293 1.465-1.723v0c0.549-0.379 1.135-0.608 1.759-0.687 0.629-0.083 1.079 0.074 1.353 0.47v0c0.259 0.375 0.305 0.928 0.138 1.658v0c-0.542-0.266-1.074-0.393-1.597-0.384-0.523 0.01-0.985 0.153-1.386 0.431v0c-0.602 0.415-0.906 0.952-0.912 1.61-0.002 0.664 0.146 1.212 0.445 1.645v0c0.248 0.359 0.591 0.597 1.031 0.715 0.441 0.109 1.077 0.2 1.907 0.275v0c1.019 0.1 1.849 0.252 2.49 0.457 0.642 0.196 1.165 0.588 1.569 1.174v0c0.43 0.623 0.656 1.386 0.679 2.29 0.027 0.909-0.176 1.812-0.609 2.71-0.427 0.895-1.066 1.635-1.916 2.222z" fill="#111111" data-fill-palette-color="accent"></path><path d="M94.709 29.269c0.278-0.116 0.532 0.102 0.762 0.652v0c0.406 0.977 0.404 2.184-0.007 3.619-0.408 1.441-1.071 2.78-1.987 4.015-0.915 1.242-1.881 2.075-2.901 2.499v0c-0.823 0.342-1.563 0.351-2.219 0.026-0.662-0.322-1.202-0.869-1.62-1.64v0c-0.209 0.983-0.616 1.885-1.219 2.706-0.607 0.829-1.227 1.375-1.861 1.639v0c-0.551 0.229-1.173 0.269-1.868 0.121-0.7-0.147-1.331-0.419-1.892-0.818-0.562-0.399-0.957-0.839-1.185-1.321v0l-1.108-7.073c-0.087-0.561 0.009-1.24 0.289-2.038 0.277-0.803 0.707-1.548 1.29-2.235 0.58-0.693 1.252-1.198 2.016-1.516v0c0.977-0.406 1.973-0.435 2.987-0.085v0c-0.02-0.582-0.009-0.958 0.031-1.128 0.049-0.166 0.163-0.301 0.343-0.404v0l1.488-0.806 0.124 0.021c-0.284 0.521-0.371 1.179-0.263 1.975v0c0.367 2.737 0.671 4.737 0.911 5.999 0.242 1.268 0.55 2.349 0.922 3.243v0c0.369 0.888 0.756 1.492 1.159 1.811 0.409 0.316 0.889 0.36 1.44 0.13v0c0.675-0.281 1.372-0.894 2.091-1.838 0.713-0.942 1.287-2.084 1.722-3.426 0.438-1.335 0.623-2.712 0.555-4.129zM83.157 41.232c0.361-0.15 0.75-0.461 1.165-0.932 0.415-0.471 0.752-1.039 1.011-1.703 0.257-0.669 0.341-1.344 0.253-2.023v0l-0.482-2.863c-0.088-0.463-0.225-1.209-0.409-2.237-0.178-1.03-0.308-1.827-0.39-2.391v0c-0.845-0.344-1.69-0.339-2.537 0.013v0c-0.657 0.273-1.177 0.694-1.559 1.263-0.388 0.571-0.647 1.176-0.778 1.814-0.131 0.638-0.162 1.165-0.093 1.581v0l1.087 6.197c0.261 0.51 0.672 0.898 1.235 1.164 0.554 0.263 1.053 0.302 1.497 0.117z" fill="#111111" data-fill-palette-color="accent"></path><path d="M111.622 24.377c0.22-0.044 0.421 0.027 0.602 0.213 0.175 0.187 0.294 0.438 0.357 0.753v0c0.081 0.403 0.056 0.852-0.073 1.349v0c-0.369 1.454-1.027 2.856-1.973 4.204-0.947 1.348-2.037 2.486-3.271 3.413-1.227 0.927-2.426 1.507-3.596 1.742v0c-2.39 0.479-3.863-0.665-4.417-3.433v0c-0.388-1.937-0.484-5.156-0.288-9.658 0.203-4.503 0.593-10.502 1.171-17.997v0c0.134-1.551 0.386-2.727 0.755-3.527 0.363-0.799 0.872-1.264 1.526-1.396v0c0.472-0.095 0.961-0.022 1.466 0.217 0.506 0.239 0.974 0.665 1.405 1.278 0.426 0.621 0.737 1.426 0.935 2.413v0c0.322 1.604 0.351 3.708 0.088 6.313-0.263 2.604-0.876 5.419-1.84 8.445-0.956 3.031-2.262 5.916-3.917 8.656v0c0.014 2.058 0.117 3.572 0.312 4.54v0c0.217 1.082 0.592 1.811 1.126 2.189 0.532 0.371 1.192 0.477 1.978 0.32v0c1.107-0.222 2.209-0.829 3.305-1.821 1.103-0.993 2.046-2.226 2.83-3.698 0.779-1.465 1.286-2.97 1.519-4.515zM101.437 6.91c-0.522 7.184-0.819 13.112-0.89 17.784v0c1.247-2.429 2.222-5.002 2.927-7.722 0.712-2.714 1.15-5.213 1.314-7.496 0.157-2.282 0.112-4.043-0.137-5.281v0c-0.14-0.698-0.361-1.279-0.663-1.742-0.303-0.469-0.691-0.656-1.163-0.562v0c-0.27 0.054-0.534 0.402-0.792 1.042-0.259 0.634-0.458 1.96-0.596 3.977z" fill="#111111" data-fill-palette-color="accent"></path><path d="M134.413 26.207c0.301 0 0.452 0.299 0.451 0.896v0c-0.001 1.058-0.468 2.171-1.4 3.337-0.932 1.173-2.059 2.153-3.381 2.939-1.323 0.794-2.535 1.19-3.639 1.189v0c-0.892-0.001-1.578-0.278-2.058-0.831-0.487-0.552-0.774-1.265-0.863-2.137v0c-0.572 0.827-1.295 1.503-2.168 2.028-0.88 0.531-1.663 0.796-2.348 0.795v0c-0.597-0.001-1.186-0.204-1.77-0.608-0.59-0.405-1.067-0.899-1.432-1.484-0.365-0.584-0.56-1.143-0.585-1.675v0l1.703-6.955c0.135-0.551 0.486-1.141 1.052-1.769 0.565-0.634 1.249-1.156 2.051-1.566 0.802-0.416 1.617-0.623 2.445-0.622v0c1.058 0.001 1.988 0.359 2.789 1.072v0c0.206-0.545 0.36-0.888 0.463-1.029 0.109-0.135 0.267-0.215 0.472-0.24v0l1.684-0.171 0.106 0.068c-0.462 0.371-0.797 0.945-1.003 1.721v0c-0.716 2.668-1.206 4.63-1.471 5.887-0.265 1.263-0.398 2.379-0.399 3.348v0c-0.001 0.962 0.123 1.668 0.373 2.117 0.256 0.449 0.682 0.674 1.279 0.675v0c0.731 0.001 1.611-0.296 2.637-0.891 1.021-0.595 1.99-1.428 2.91-2.498 0.919-1.064 1.62-2.262 2.102-3.596zM119.144 32.797c0.391 0.001 0.869-0.137 1.434-0.412 0.565-0.275 1.095-0.669 1.589-1.181 0.495-0.519 0.832-1.109 1.013-1.769v0l0.658-2.828c0.097-0.462 0.258-1.202 0.484-2.222 0.232-1.02 0.419-1.805 0.561-2.357v0c-0.647-0.642-1.429-0.964-2.346-0.965v0c-0.712-0.001-1.354 0.187-1.926 0.565-0.578 0.378-1.05 0.836-1.416 1.374-0.366 0.538-0.598 1.013-0.695 1.423v0l-1.384 6.137c0.044 0.571 0.274 1.088 0.691 1.55 0.41 0.456 0.855 0.684 1.337 0.685z" fill="#111111" data-fill-palette-color="accent"></path><path d="M183.36 48.891c0.234 0.348 0.186 0.849-0.144 1.501v0c-0.405 0.802-1.012 1.505-1.82 2.109-0.806 0.613-1.71 1.001-2.712 1.164-0.996 0.165-1.975 0.005-2.937-0.482v0c-1.597-0.807-2.444-2.162-2.539-4.064-0.095-1.902 0.437-4.002 1.597-6.297v0c0.691-1.368 1.579-2.77 2.664-4.206 1.085-1.436 2.18-2.736 3.287-3.902v0c-1.42 0.777-3.05 1.726-4.887 2.845-1.841 1.111-5.042 3.101-9.604 5.971v0c-0.834 0.527-1.335 0.957-1.503 1.289v0c-0.052 0.103-0.084 0.209-0.096 0.318-0.018 0.106-0.041 0.188-0.07 0.245v0c-0.052 0.103-0.17 0.137-0.353 0.102v0c-0.72-0.112-1.203-0.166-1.45-0.161-0.247 0.005-0.39-0.003-0.43-0.024v0c-0.126-0.064-0.186-0.223-0.179-0.478v0c0.126-0.008 0.251-0.071 0.375-0.188 0.127-0.123 0.288-0.379 0.485-0.768v0c0.506-1.002 1.282-3.021 2.328-6.058 1.046-3.037 1.986-5.886 2.82-8.547v0c-2.977 2.635-5.587 4.756-7.828 6.362-2.244 1.611-4.465 2.75-6.663 3.414-2.203 0.662-4.238 0.521-6.104-0.421v0c-1.088-0.55-1.901-1.259-2.44-2.128-0.541-0.863-0.806-1.798-0.793-2.805 0.01-1.016 0.258-2.004 0.744-2.966v0c0.434-0.859 0.968-1.559 1.601-2.101 0.633-0.542 1.263-0.9 1.889-1.073 0.626-0.172 1.145-0.154 1.558 0.054v0c0.206 0.104 0.343 0.238 0.411 0.402v0c-1.6 0.579-2.784 1.626-3.55 3.144v0c-0.631 1.248-0.802 2.383-0.514 3.406 0.294 1.025 1.045 1.843 2.254 2.453v0c1.58 0.798 3.308 0.899 5.184 0.302 1.87-0.6 3.906-1.721 6.107-3.361 2.207-1.637 5.161-4.055 8.861-7.252v0c0.049-0.155 0.107-0.319 0.174-0.494 0.061-0.178 0.112-0.357 0.153-0.538v0c0.076-0.249 0.235-0.729 0.479-1.439 0.247-0.716 0.453-1.237 0.618-1.564v0c0.197-0.389 0.442-0.618 0.735-0.685 0.29-0.076 0.578-0.042 0.864 0.102v0c0.332 0.168 0.606 0.429 0.823 0.783 0.222 0.357 0.203 0.793-0.057 1.308v0c-0.061 0.12-0.393 0.621-0.996 1.501v0c-0.762 1.11-1.247 1.842-1.455 2.198v0c-0.352 1.109-1.194 3.644-2.528 7.606v0l-2.214 6.6c8.371-5.372 14.358-9.078 17.961-11.117v0c1.544-0.866 2.688-1.437 3.433-1.715 0.747-0.284 1.315-0.327 1.704-0.131v0c0.349 0.176 0.58 0.509 0.693 0.997 0.121 0.485 0.138 0.936 0.05 1.351v0c-0.55-0.278-1.212-0.311-1.987-0.098-0.775 0.212-1.612 0.644-2.51 1.297v0c-1.508 1.092-2.979 2.602-4.413 4.53-1.434 1.928-2.621 3.822-3.561 5.683v0c-1.131 2.239-1.732 4.138-1.801 5.698-0.07 1.56 0.491 2.641 1.681 3.243v0c1.025 0.518 2.118 0.502 3.28-0.046 1.167-0.546 2.276-1.502 3.325-2.869z" fill="#111111" data-fill-palette-color="accent"></path><path d="M185.854 59.379c-0.581-0.552-0.914-1.24-0.999-2.064-0.089-0.828 0.23-1.626 0.959-2.393v0c1.011-0.561 3.127-1.923 6.347-4.084v0c1.583-1.062 2.536-1.696 2.858-1.904v0c0.568-0.16 1.042-0.059 1.423 0.304v0c0.251 0.239 0.297 0.442 0.138 0.609v0c-0.514 0.308-1.306 0.816-2.377 1.524-1.071 0.708-1.909 1.265-2.516 1.671v0c-2.413 1.637-3.976 2.668-4.691 3.095v0c-0.367 0.386-0.536 0.787-0.507 1.204 0.024 0.421 0.22 0.807 0.588 1.156v0c0.833 0.791 1.95 1.291 3.353 1.499 1.403 0.209 2.796 0.228 4.18 0.056 1.384-0.181 2.501-0.402 3.352-0.665v0c0.071 0.13 0.088 0.247 0.05 0.353-0.038 0.105-0.143 0.249-0.315 0.43v0c-0.239 0.251-0.567 0.43-0.987 0.536v0c-2.245 0.566-4.337 0.751-6.275 0.556-1.938-0.195-3.465-0.823-4.581-1.883zM200.053 46.735c-0.233-0.221-0.341-0.474-0.326-0.76 0.02-0.282 0.149-0.548 0.388-0.8v0c0.314-0.33 0.708-0.531 1.182-0.602 0.484-0.071 0.891 0.05 1.221 0.363v0c0.27 0.256 0.388 0.528 0.355 0.815-0.038 0.282-0.168 0.54-0.389 0.772v0c-0.318 0.335-0.719 0.533-1.203 0.596-0.484 0.062-0.893-0.065-1.228-0.384z" fill="#111111" data-fill-palette-color="accent"></path><path d="M209.647 72.361c0.136 0.178 0.161 0.39 0.073 0.635-0.092 0.239-0.265 0.457-0.52 0.651v0c-0.326 0.249-0.741 0.425-1.244 0.527v0c-1.469 0.307-3.017 0.331-4.643 0.072-1.627-0.259-3.127-0.739-4.503-1.441-1.371-0.696-2.419-1.518-3.143-2.466v0c-1.48-1.937-1.098-3.762 1.145-5.476v0c1.57-1.199 4.421-2.699 8.551-4.498 4.135-1.794 9.696-4.077 16.685-6.848v0c1.453-0.561 2.619-0.851 3.501-0.87 0.877-0.024 1.519 0.228 1.923 0.759v0c0.292 0.382 0.442 0.853 0.45 1.412 0.007 0.559-0.17 1.167-0.533 1.824-0.371 0.655-0.957 1.288-1.758 1.899v0c-1.3 0.993-3.178 1.943-5.632 2.85-2.455 0.907-5.254 1.592-8.396 2.054-3.143 0.472-6.309 0.565-9.497 0.28v0c-1.843 0.916-3.157 1.673-3.943 2.273v0c-0.877 0.67-1.368 1.327-1.472 1.972-0.1 0.641 0.094 1.28 0.581 1.918v0c0.685 0.897 1.714 1.621 3.087 2.17 1.376 0.555 2.898 0.862 4.565 0.92 1.658 0.057 3.233-0.148 4.723-0.617zM220.871 55.542c-6.684 2.684-12.14 5.02-16.37 7.007v0c2.729 0.054 5.47-0.199 8.223-0.759 2.751-0.552 5.188-1.255 7.311-2.11 2.12-0.86 3.682-1.674 4.686-2.441v0c0.566-0.432 0.99-0.886 1.274-1.361 0.288-0.479 0.286-0.909-0.006-1.291v0c-0.167-0.219-0.595-0.304-1.284-0.254-0.683 0.046-1.962 0.449-3.834 1.209z" fill="#111111" data-fill-palette-color="accent"></path><path d="M216.451 88.947c0.125 0.397 0.014 0.686-0.334 0.865v0c-0.816 0.42-2.041 0.387-3.677-0.099-1.63-0.489-3.206-1.246-4.73-2.273-1.524-1.026-2.533-2.019-3.026-2.977v0c-0.473-0.918-0.643-1.837-0.51-2.757 0.133-0.92 0.403-1.712 0.812-2.376 0.408-0.665 0.755-1.07 1.04-1.218v0c1.334-0.268 3.133-0.74 5.397-1.414v0l1.883-0.547c0.452-0.132 1.029-0.054 1.733 0.234 0.7 0.282 1.362 0.663 1.984 1.143 0.622 0.48 1.034 0.915 1.233 1.302v0c0.159 0.308 0.254 0.731 0.286 1.27 0.032 0.539-0.071 1.082-0.308 1.631-0.237 0.548-0.673 0.985-1.306 1.31v0c-0.73 0.376-1.549 0.487-2.457 0.335-0.908-0.153-1.812-0.604-2.71-1.354-0.904-0.747-1.704-1.796-2.4-3.148v0l-2.273 0.629c-0.183 0.094-0.432 0.359-0.748 0.796-0.316 0.437-0.525 0.984-0.627 1.643-0.101 0.658 0.037 1.355 0.417 2.091v0c0.505 0.981 1.357 1.845 2.556 2.591 1.202 0.752 2.514 1.332 3.937 1.74 1.419 0.402 2.695 0.597 3.828 0.583zM216.875 79.238c-0.126-0.245-0.392-0.509-0.797-0.791-0.405-0.282-0.841-0.505-1.307-0.669-0.469-0.155-0.854-0.195-1.155-0.12v0c-1.024 0.267-2.045 0.562-3.062 0.883v0c0.864 1.539 1.784 2.563 2.76 3.071 0.967 0.505 1.81 0.573 2.528 0.203v0c0.508-0.261 0.85-0.668 1.027-1.222 0.183-0.556 0.185-1.008 0.006-1.355z" fill="#111111" data-fill-palette-color="accent"></path><path d="M209.704 96.56c-0.349-1.047-0.393-2.019-0.131-2.918 0.256-0.897 0.712-1.455 1.369-1.674v0c0.347-0.116 0.663-0.11 0.949 0.018 0.278 0.124 0.481 0.296 0.609 0.518v0c-0.746 0.519-1.236 1.119-1.469 1.798-0.231 0.686-0.217 1.418 0.042 2.197v0c0.329 0.986 0.867 1.679 1.616 2.078 0.751 0.406 1.497 0.485 2.24 0.237v0c0.542-0.181 0.967-0.498 1.275-0.952 0.308-0.454 0.631-1.089 0.967-1.905v0c0.377-0.897 0.734-1.59 1.071-2.081 0.333-0.483 0.815-0.83 1.448-1.041v0c0.675-0.225 1.389-0.226 2.139-0.003 0.749 0.217 1.42 0.598 2.015 1.143 0.592 0.54 1.008 1.168 1.247 1.887v0c0.211 0.633 0.268 1.26 0.171 1.88-0.095 0.627-0.371 1.016-0.828 1.169v0c-0.432 0.144-0.976 0.035-1.631-0.329v0c0.406-0.446 0.676-0.922 0.813-1.427 0.136-0.505 0.127-0.989-0.028-1.451v0c-0.231-0.694-0.662-1.135-1.293-1.324-0.637-0.187-1.205-0.197-1.704-0.03v0c-0.414 0.138-0.738 0.402-0.974 0.791-0.227 0.394-0.492 0.979-0.794 1.756v0c-0.379 0.951-0.757 1.706-1.131 2.264-0.367 0.562-0.888 0.956-1.564 1.181v0c-0.718 0.239-1.514 0.245-2.389 0.015-0.88-0.227-1.692-0.673-2.434-1.339-0.74-0.659-1.274-1.479-1.601-2.458z" fill="#111111" data-fill-palette-color="accent"></path><path d="M38.215 197.364c-0.013 0.471-0.383 0.897-1.11 1.28v0c-0.88 0.463-1.885 0.709-3.015 0.738-1.124 0.026-2.194-0.208-3.208-0.703-1.012-0.49-1.798-1.268-2.36-2.335v0c-0.929-1.765-0.82-3.541 0.328-5.327 1.139-1.788 2.975-3.349 5.507-4.682v0c1.521-0.801 3.237-1.501 5.147-2.1 1.91-0.599 3.742-1.071 5.497-1.414v0c-1.789-0.218-3.878-0.413-6.266-0.584-2.391-0.177-6.584-0.438-12.58-0.784v0c-1.1-0.052-1.829 0.017-2.187 0.205v0c-0.114 0.06-0.212 0.134-0.297 0.221-0.084 0.088-0.16 0.15-0.228 0.186v0c-0.114 0.06-0.241 0.011-0.382-0.147v0c-0.586-0.562-0.992-0.92-1.219-1.076-0.227-0.156-0.353-0.257-0.376-0.302v0c-0.072-0.136-0.024-0.321 0.143-0.554v0c0.128 0.078 0.286 0.103 0.475 0.076 0.189-0.027 0.499-0.154 0.93-0.381v0c1.107-0.583 3.115-1.911 6.025-3.986 2.912-2.084 5.605-4.067 8.079-5.949v0c-4.406 0.471-8.147 0.711-11.223 0.72-3.067 0.012-5.816-0.39-8.246-1.206-2.424-0.819-4.179-2.259-5.263-4.319v0c-0.633-1.203-0.915-2.371-0.843-3.503 0.068-1.138 0.431-2.162 1.089-3.074 0.667-0.909 1.531-1.643 2.593-2.202v0c0.954-0.502 1.89-0.795 2.809-0.881 0.928-0.082 1.733 0.001 2.416 0.251 0.682 0.25 1.143 0.602 1.382 1.056v0c0.117 0.221 0.154 0.43 0.112 0.626v0c-1.833-0.507-3.586-0.32-5.261 0.562v0c-1.379 0.726-2.267 1.65-2.663 2.771-0.393 1.113-0.237 2.339 0.469 3.679v0c0.917 1.743 2.417 2.947 4.5 3.612 2.083 0.665 4.656 0.968 7.718 0.907 3.06-0.067 7.304-0.357 12.731-0.872v0c0.147-0.106 0.302-0.217 0.467-0.333 0.17-0.118 0.333-0.248 0.491-0.389v0c0.226-0.177 0.681-0.511 1.365-1.001 0.678-0.488 1.199-0.827 1.563-1.018v0c0.431-0.227 0.803-0.278 1.115-0.153 0.313 0.125 0.552 0.347 0.72 0.665v0c0.191 0.363 0.272 0.778 0.241 1.243-0.033 0.46-0.334 0.839-0.901 1.138v0c-0.136 0.072-0.758 0.316-1.866 0.732v0c-1.407 0.508-2.321 0.859-2.741 1.052v0c-1.04 0.779-3.444 2.534-7.212 5.263v0l-6.266 4.56c11.061 0.536 18.888 1.041 23.48 1.516v0c1.961 0.215 3.372 0.436 4.232 0.665 0.851 0.226 1.39 0.555 1.617 0.986v0c0.203 0.386 0.204 0.835 0.002 1.348-0.207 0.515-0.485 0.937-0.834 1.265v0c-0.323-0.613-0.906-1.074-1.751-1.384-0.839-0.313-1.876-0.459-3.112-0.438v0c-2.071 0.017-4.381 0.436-6.929 1.254-2.548 0.819-4.853 1.771-6.913 2.856v0c-2.469 1.3-4.238 2.636-5.306 4.01-1.067 1.374-1.256 2.716-0.566 4.028v0c0.598 1.135 1.598 1.83 3.001 2.085 1.411 0.258 3.038 0.105 4.88-0.459z" fill="#111111" data-fill-palette-color="accent"></path><path d="M59.547 215.856c0.244 0.227 0.142 0.583-0.308 1.067v0c-0.803 0.865-2.029 1.42-3.677 1.666-1.647 0.256-3.311 0.203-4.989-0.157-1.679-0.351-2.969-0.946-3.872-1.785v0c-0.728-0.677-1.08-1.424-1.056-2.242 0.024-0.818 0.329-1.617 0.913-2.396v0c-1.09 0.24-2.192 0.244-3.308 0.013-1.111-0.227-1.949-0.603-2.513-1.127v0c-0.489-0.454-0.82-1.068-0.994-1.842-0.169-0.77-0.183-1.532-0.043-2.286 0.145-0.759 0.408-1.363 0.791-1.813v0l6.661-4.398c0.528-0.342 1.259-0.559 2.196-0.652 0.941-0.089 1.895 0.005 2.863 0.283 0.968 0.269 1.79 0.717 2.466 1.346v0c0.86 0.799 1.35 1.793 1.472 2.982v0c0.584-0.289 0.971-0.451 1.16-0.485 0.189-0.034 0.377 0.018 0.564 0.156v0l1.505 1.137 0.032 0.135c-0.655-0.049-1.362 0.166-2.121 0.643v0c-2.6 1.639-4.486 2.872-5.658 3.7-1.177 0.833-2.13 1.642-2.859 2.427v0c-0.734 0.789-1.167 1.464-1.301 2.022-0.129 0.554 0.048 1.056 0.532 1.505v0c0.602 0.559 1.543 0.983 2.824 1.272 1.291 0.289 2.718 0.345 4.282 0.17 1.555-0.175 3.034-0.622 4.438-1.341zM42.081 209.675c0.32 0.297 0.81 0.547 1.471 0.749 0.67 0.202 1.404 0.28 2.201 0.233 0.797-0.047 1.522-0.271 2.174-0.672v0l2.677-1.821c0.42-0.301 1.113-0.783 2.078-1.445 0.961-0.657 1.707-1.159 2.239-1.505v0c-0.037-1.015-0.429-1.87-1.176-2.565v0c-0.583-0.541-1.253-0.875-2.012-1.002-0.753-0.122-1.486-0.102-2.196 0.061-0.707 0.158-1.255 0.371-1.645 0.639v0l-5.771 3.963c-0.404 0.5-0.611 1.096-0.622 1.786-0.007 0.686 0.187 1.212 0.582 1.579z" fill="#111111" data-fill-palette-color="accent"></path><path d="M57.74 225.453c-1.032-0.672-1.747-1.49-2.145-2.453-0.393-0.96-0.381-1.76 0.035-2.4v0c0.224-0.344 0.503-0.561 0.836-0.65 0.334-0.089 0.633-0.078 0.897 0.033v0c-0.301 0.968-0.314 1.828-0.038 2.581 0.272 0.759 0.792 1.388 1.56 1.889v0c0.968 0.63 1.919 0.863 2.853 0.697 0.932-0.174 1.636-0.626 2.112-1.357v0c0.346-0.532 0.5-1.102 0.459-1.71-0.046-0.612-0.205-1.389-0.479-2.333v0c-0.3-1.045-0.47-1.894-0.511-2.549-0.046-0.658 0.134-1.299 0.54-1.922v0c0.43-0.661 1.049-1.158 1.854-1.49 0.811-0.329 1.662-0.46 2.553-0.394 0.894 0.061 1.693 0.321 2.397 0.78v0c0.624 0.406 1.111 0.915 1.463 1.527 0.35 0.603 0.378 1.13 0.084 1.581v0c-0.28 0.43-0.829 0.715-1.648 0.856v0c0.042-0.677-0.053-1.282-0.287-1.817-0.234-0.535-0.576-0.949-1.027-1.243v0c-0.683-0.445-1.366-0.53-2.05-0.255-0.684 0.274-1.185 0.656-1.504 1.145v0c-0.266 0.409-0.364 0.865-0.294 1.37 0.07 0.505 0.244 1.2 0.524 2.087v0c0.323 1.091 0.517 2.009 0.583 2.755 0.065 0.747-0.118 1.45-0.548 2.112v0c-0.462 0.71-1.155 1.269-2.08 1.678-0.921 0.403-1.932 0.575-3.034 0.516-1.107-0.063-2.142-0.407-3.105-1.034z" fill="#111111" data-fill-palette-color="accent"></path><path d="M96.159 232.83c0.311 0.121 0.347 0.489 0.108 1.105v0c-0.428 1.1-1.362 2.069-2.803 2.906-1.437 0.845-3.002 1.41-4.695 1.695-1.69 0.293-3.109 0.216-4.257-0.23v0c-0.927-0.36-1.53-0.925-1.809-1.695-0.279-0.769-0.291-1.624-0.035-2.563v0c-0.924 0.625-1.948 1.036-3.071 1.232-1.117 0.199-2.034 0.159-2.751-0.12v0c-0.622-0.242-1.156-0.69-1.603-1.346-0.441-0.653-0.736-1.356-0.884-2.109-0.146-0.759-0.123-1.418 0.067-1.976v0l4.567-6.546c0.364-0.512 0.964-0.984 1.8-1.416 0.842-0.43 1.763-0.694 2.766-0.794 0.998-0.107 1.928 0.006 2.789 0.341v0c1.094 0.425 1.917 1.168 2.468 2.229v0c0.436-0.484 0.736-0.777 0.899-0.879 0.163-0.102 0.357-0.123 0.582-0.062v0l1.819 0.5 0.079 0.114c-0.627 0.197-1.205 0.657-1.734 1.38v0c-1.812 2.482-3.109 4.325-3.893 5.527-0.786 1.208-1.374 2.312-1.762 3.311v0c-0.39 1.004-0.545 1.791-0.463 2.359 0.084 0.563 0.434 0.964 1.05 1.203v0c0.765 0.298 1.797 0.344 3.094 0.14 1.306-0.208 2.653-0.682 4.043-1.423 1.381-0.737 2.591-1.698 3.629-2.883zM77.645 233.53c0.407 0.158 0.954 0.209 1.644 0.154 0.698-0.059 1.408-0.258 2.131-0.596 0.723-0.338 1.314-0.814 1.773-1.427v0l1.816-2.681c0.279-0.435 0.745-1.138 1.398-2.109 0.651-0.965 1.159-1.707 1.526-2.225v0c-0.409-0.93-1.089-1.58-2.04-1.95v0c-0.741-0.288-1.488-0.351-2.239-0.189-0.745 0.165-1.419 0.453-2.019 0.867-0.599 0.407-1.03 0.808-1.293 1.201v0l-3.902 5.813c-0.191 0.614-0.164 1.244 0.081 1.89 0.247 0.64 0.621 1.057 1.124 1.252z" fill="#111111" data-fill-palette-color="accent"></path><path d="M114.179 233.821c0.252 0.046 0.433 0.202 0.54 0.47 0.108 0.267 0.13 0.578 0.066 0.931v0c-0.082 0.454-0.295 0.908-0.638 1.361v0c-0.971 1.362-2.226 2.546-3.764 3.552-1.533 1.013-3.13 1.743-4.789 2.192-1.654 0.456-3.134 0.566-4.441 0.328v0c-2.67-0.484-3.724-2.276-3.161-5.375v0c0.393-2.165 1.615-5.539 3.665-10.122 2.056-4.575 4.924-10.627 8.605-18.153v0c0.776-1.548 1.516-2.662 2.22-3.343 0.709-0.673 1.429-0.943 2.162-0.811v0c0.53 0.096 1.006 0.368 1.426 0.817 0.426 0.455 0.734 1.092 0.925 1.908 0.191 0.817 0.186 1.778-0.015 2.882v0c-0.324 1.786-1.158 3.975-2.502 6.568-1.338 2.593-3.128 5.258-5.372 7.993-2.238 2.743-4.776 5.196-7.614 7.361v0c-0.831 2.138-1.345 3.746-1.54 4.825v0c-0.22 1.212-0.131 2.121 0.267 2.728 0.4 0.601 1.041 0.981 1.925 1.142v0c1.231 0.223 2.619 0.048 4.164-0.526 1.552-0.579 3.034-1.467 4.444-2.665 1.418-1.203 2.56-2.557 3.426-4.063zM110.815 211.56c-3.495 7.222-6.239 13.24-8.234 18.054v0c2.287-2.004 4.357-4.269 6.21-6.794 1.847-2.527 3.325-4.938 4.433-7.234 1.101-2.297 1.778-4.137 2.028-5.519v0c0.142-0.783 0.15-1.475 0.025-2.079-0.118-0.608-0.442-0.96-0.972-1.056v0c-0.303-0.055-0.72 0.195-1.251 0.751-0.53 0.549-1.276 1.842-2.239 3.877z" fill="#111111" data-fill-palette-color="accent"></path><path d="M137.277 234.974c0.334-0.005 0.505 0.323 0.515 0.983v0c0.018 1.18-0.483 2.429-1.502 3.747-1.013 1.324-2.25 2.437-3.712 3.338-1.455 0.907-2.799 1.37-4.03 1.389v0c-0.994 0.015-1.765-0.281-2.314-0.889-0.548-0.608-0.881-1.395-0.998-2.362v0c-0.621 0.927-1.415 1.693-2.381 2.298-0.96 0.605-1.824 0.913-2.594 0.924v0c-0.667 0.01-1.331-0.204-1.992-0.643-0.655-0.439-1.192-0.98-1.612-1.621-0.42-0.648-0.648-1.267-0.683-1.857v0l1.769-7.783c0.145-0.612 0.523-1.275 1.134-1.99 0.618-0.715 1.372-1.307 2.264-1.776 0.885-0.475 1.789-0.72 2.712-0.734v0c1.174-0.018 2.216 0.361 3.125 1.136v0c0.222-0.613 0.389-0.997 0.503-1.153 0.113-0.156 0.285-0.248 0.515-0.277v0l1.873-0.221 0.117 0.076c-0.507 0.418-0.869 1.062-1.087 1.931v0c-0.744 2.982-1.253 5.177-1.527 6.586-0.274 1.416-0.402 2.659-0.386 3.73v0c0.016 1.078 0.169 1.864 0.459 2.361 0.29 0.49 0.765 0.729 1.426 0.719v0c0.821-0.012 1.794-0.358 2.919-1.035 1.132-0.684 2.202-1.631 3.21-2.84 1.002-1.202 1.761-2.548 2.277-4.037zM120.388 242.591c0.436-0.007 0.963-0.165 1.581-0.476 0.624-0.317 1.207-0.769 1.75-1.355 0.543-0.586 0.911-1.249 1.105-1.989v0l0.674-3.167c0.095-0.508 0.262-1.335 0.501-2.48 0.239-1.139 0.431-2.018 0.576-2.636v0c-0.729-0.708-1.604-1.054-2.623-1.038v0c-0.795 0.012-1.511 0.235-2.146 0.667-0.629 0.433-1.144 0.954-1.545 1.563-0.401 0.603-0.65 1.136-0.745 1.599v0l-1.427 6.855c0.055 0.641 0.317 1.214 0.787 1.72 0.469 0.5 0.974 0.746 1.512 0.737z" fill="#111111" data-fill-palette-color="accent"></path><path d="M190.559 212.941c0.471 0.015 0.896 0.387 1.275 1.115v0c0.459 0.882 0.701 1.888 0.726 3.018 0.022 1.124-0.217 2.193-0.717 3.205-0.494 1.01-1.276 1.793-2.345 2.35v0c-1.769 0.922-3.544 0.805-5.326-0.35-1.784-1.147-3.336-2.989-4.658-5.526v0c-0.794-1.525-1.487-3.243-2.078-5.156-0.591-1.913-1.055-3.747-1.391-5.503v0c-0.226 1.788-0.429 3.876-0.611 6.263-0.187 2.39-0.466 6.582-0.836 12.577v0c-0.056 1.1 0.009 1.829 0.195 2.187v0c0.059 0.114 0.133 0.213 0.22 0.298 0.087 0.085 0.149 0.161 0.185 0.229v0c0.059 0.114 0.01 0.241-0.149 0.382v0c-0.564 0.583-0.925 0.988-1.081 1.214-0.157 0.226-0.258 0.351-0.304 0.375v0c-0.137 0.071-0.321 0.023-0.553-0.146v0c0.078-0.128 0.104-0.286 0.078-0.474-0.026-0.189-0.152-0.5-0.377-0.932v0c-0.578-1.109-1.898-3.123-3.961-6.042-2.071-2.921-4.043-5.622-5.915-8.104v0c0.452 4.408 0.676 8.15 0.673 11.226-0.001 3.067-0.414 5.814-1.24 8.241-0.829 2.421-2.276 4.169-4.341 5.245v0c-1.206 0.628-2.375 0.905-3.507 0.829-1.137-0.073-2.161-0.44-3.07-1.103-0.906-0.671-1.637-1.538-2.191-2.602v0c-0.498-0.956-0.788-1.893-0.868-2.813-0.079-0.928 0.008-1.733 0.261-2.414 0.253-0.681 0.607-1.141 1.061-1.378v0c0.222-0.116 0.431-0.152 0.627-0.109v0c-0.515 1.83-0.335 3.585 0.539 5.263v0c0.72 1.382 1.64 2.274 2.761 2.674 1.111 0.398 2.338 0.247 3.68-0.453v0c1.747-0.91 2.957-2.405 3.631-4.484 0.674-2.08 0.987-4.652 0.939-7.715-0.054-3.061-0.327-7.305-0.818-12.735v0c-0.106-0.147-0.216-0.303-0.331-0.468-0.118-0.17-0.247-0.334-0.387-0.492v0c-0.176-0.227-0.508-0.683-0.995-1.37-0.485-0.681-0.822-1.203-1.012-1.567v0c-0.225-0.432-0.274-0.805-0.147-1.116 0.127-0.312 0.349-0.551 0.668-0.717v0c0.364-0.19 0.779-0.268 1.244-0.236 0.46 0.035 0.838 0.338 1.134 0.907v0c0.071 0.137 0.312 0.759 0.724 1.868v0c0.503 1.409 0.849 2.324 1.04 2.746v0c0.775 1.043 2.519 3.454 5.233 7.234v0l4.533 6.285c0.582-11.059 1.121-18.883 1.615-23.473v0c0.223-1.96 0.45-3.37 0.683-4.23 0.23-0.85 0.561-1.388 0.993-1.613v0c0.387-0.202 0.836-0.2 1.347 0.004 0.514 0.209 0.935 0.489 1.262 0.839v0c-0.614 0.32-1.078 0.902-1.391 1.745-0.316 0.837-0.467 1.874-0.452 3.111v0c0.009 2.071 0.417 4.383 1.226 6.934 0.808 2.552 1.751 4.86 2.827 6.925v0c1.289 2.475 2.618 4.249 3.987 5.322 1.369 1.073 2.711 1.268 4.025 0.583v0c1.138-0.593 1.837-1.59 2.098-2.991 0.263-1.41 0.117-3.038-0.438-4.882z" fill="#111111" data-fill-palette-color="accent"></path><path d="M203.391 211.545c-0.635 0.626-1.416 0.972-2.341 1.037-0.926 0.066-1.801-0.319-2.625-1.155v0c-0.586-1.143-2.024-3.553-4.315-7.23v0c-1.13-1.795-1.803-2.875-2.018-3.24v0c-0.154-0.632-0.021-1.155 0.399-1.569v0c0.274-0.27 0.501-0.314 0.682-0.131v0c0.318 0.578 0.853 1.478 1.606 2.699 0.749 1.217 1.338 2.171 1.769 2.864v0c1.731 2.743 2.822 4.523 3.274 5.338v0c0.414 0.42 0.855 0.625 1.323 0.615 0.467-0.019 0.902-0.227 1.304-0.623v0c0.909-0.896 1.508-2.121 1.796-3.675 0.279-1.554 0.349-3.105 0.21-4.652-0.147-1.548-0.352-2.801-0.612-3.761v0c0.146-0.072 0.277-0.084 0.395-0.038 0.118 0.046 0.273 0.168 0.467 0.364v0c0.27 0.274 0.458 0.647 0.563 1.12v0c0.544 2.517 0.675 4.852 0.392 7.005-0.292 2.152-1.049 3.83-2.269 5.032zM189.834 195.266c-0.256 0.252-0.542 0.363-0.86 0.334-0.317-0.03-0.611-0.181-0.881-0.456v0c-0.356-0.361-0.563-0.809-0.623-1.345-0.06-0.536 0.091-0.981 0.452-1.337v0c0.292-0.288 0.597-0.408 0.914-0.361 0.317 0.048 0.602 0.199 0.854 0.456v0c0.356 0.361 0.559 0.814 0.609 1.358 0.05 0.545-0.105 0.995-0.465 1.351z" fill="#111111" data-fill-palette-color="accent"></path><path d="M212.688 182.865c0.154-0.205 0.375-0.297 0.662-0.274 0.287 0.023 0.575 0.142 0.862 0.358v0c0.37 0.277 0.68 0.67 0.932 1.179v0c0.784 1.478 1.282 3.129 1.493 4.955 0.22 1.824 0.16 3.579-0.18 5.263-0.332 1.683-0.896 3.056-1.692 4.119v0c-1.627 2.171-3.701 2.313-6.222 0.424v0c-1.761-1.319-4.232-3.921-7.414-7.804-3.173-3.885-7.303-9.156-12.39-15.814v0c-1.037-1.386-1.703-2.547-1.997-3.48-0.285-0.935-0.205-1.7 0.241-2.296v0c0.323-0.431 0.779-0.735 1.368-0.911 0.598-0.177 1.305-0.169 2.121 0.026 0.816 0.195 1.673 0.629 2.572 1.302v0c1.453 1.089 3.038 2.814 4.755 5.175 1.721 2.356 3.304 5.149 4.747 8.379 1.452 3.229 2.512 6.596 3.18 10.102v0c1.54 1.699 2.749 2.878 3.627 3.535v0c0.986 0.739 1.839 1.065 2.56 0.981 0.716-0.089 1.343-0.493 1.881-1.212v0c0.75-1.001 1.214-2.321 1.392-3.959 0.176-1.647 0.044-3.37-0.397-5.167-0.442-1.806-1.143-3.433-2.101-4.881zM191.272 175.919c4.897 6.355 9.053 11.501 12.467 15.438v0c-0.77-2.942-1.87-5.806-3.3-8.593-1.434-2.782-2.93-5.182-4.489-7.199-1.562-2.012-2.905-3.44-4.03-4.283v0c-0.637-0.477-1.252-0.794-1.848-0.951-0.597-0.167-1.057-0.034-1.379 0.397v0c-0.185 0.246-0.147 0.731 0.112 1.454 0.254 0.72 1.077 1.965 2.467 3.737z" fill="#111111" data-fill-palette-color="accent"></path><path d="M221.758 167.843c0.279-0.376 0.61-0.466 0.992-0.271v0c0.914 0.468 1.679 1.598 2.296 3.392 0.62 1.802 0.958 3.723 1.016 5.763 0.064 2.043-0.178 3.599-0.725 4.667v0c-0.526 1.028-1.251 1.781-2.173 2.26-0.92 0.473-1.81 0.741-2.671 0.805-0.867 0.061-1.46 0.009-1.781-0.155v0c-1.109-1.029-2.703-2.35-4.781-3.962v0l-1.717-1.355c-0.41-0.325-0.716-0.896-0.918-1.713-0.199-0.822-0.279-1.671-0.242-2.545 0.028-0.872 0.154-1.525 0.376-1.959v0c0.175-0.343 0.497-0.704 0.966-1.084 0.465-0.374 1.02-0.634 1.664-0.78 0.65-0.143 1.329-0.033 2.037 0.329v0c0.817 0.418 1.45 1.088 1.9 2.011 0.453 0.917 0.63 2.027 0.531 3.332-0.09 1.302-0.521 2.706-1.292 4.213v0l2.045 1.642c0.206 0.105 0.608 0.164 1.208 0.175 0.602 0.006 1.235-0.16 1.898-0.498 0.657-0.341 1.195-0.919 1.613-1.736v0c0.561-1.096 0.794-2.43 0.697-4-0.1-1.579-0.427-3.141-0.983-4.687-0.559-1.555-1.211-2.836-1.956-3.844zM212.686 173.759c-0.14 0.274-0.206 0.684-0.197 1.229 0.006 0.551 0.09 1.091 0.251 1.62 0.161 0.529 0.373 0.904 0.635 1.125v0c0.905 0.752 1.836 1.488 2.793 2.209v0c0.832-1.794 1.161-3.294 0.986-4.501-0.172-1.212-0.655-2.022-1.449-2.428v0c-0.571-0.292-1.167-0.338-1.789-0.138-0.622 0.201-1.032 0.495-1.23 0.884z" fill="#111111" data-fill-palette-color="accent"></path><path d="M231.87 167.41c-0.399 1.165-1.016 2.059-1.853 2.681-0.834 0.616-1.613 0.801-2.335 0.554v0c-0.388-0.133-0.667-0.35-0.835-0.652-0.168-0.302-0.231-0.594-0.188-0.877v0c1.012 0.055 1.849-0.144 2.512-0.595 0.669-0.449 1.152-1.108 1.449-1.976v0c0.374-1.093 0.366-2.071-0.023-2.937-0.397-0.861-1.008-1.433-1.834-1.715v0c-0.601-0.205-1.191-0.214-1.77-0.026-0.582 0.194-1.296 0.54-2.144 1.036v0c-0.939 0.546-1.721 0.92-2.346 1.12-0.626 0.206-1.292 0.189-1.996-0.052v0c-0.747-0.255-1.38-0.733-1.9-1.433-0.518-0.706-0.854-1.499-1.007-2.378-0.159-0.882-0.103-1.72 0.169-2.515v0c0.241-0.704 0.615-1.302 1.122-1.793 0.499-0.487 1.003-0.643 1.513-0.469v0c0.486 0.166 0.897 0.629 1.233 1.388v0c-0.666 0.125-1.23 0.366-1.691 0.723-0.461 0.357-0.779 0.791-0.954 1.301v0c-0.264 0.771-0.179 1.454 0.255 2.05 0.434 0.596 0.926 0.988 1.479 1.177v0c0.461 0.158 0.928 0.141 1.4-0.05 0.472-0.191 1.104-0.531 1.895-1.02v0c0.978-0.581 1.821-0.994 2.529-1.24 0.708-0.246 1.435-0.241 2.182 0.014v0c0.801 0.274 1.513 0.809 2.135 1.605 0.617 0.794 1.031 1.732 1.244 2.815 0.211 1.089 0.13 2.177-0.241 3.264z" fill="#111111" data-fill-palette-color="accent"></path><path d="M4.766 127.758c0-7.45 6.04-13.49 13.49-13.49 7.45 0 13.49 6.04 13.489 13.49 0 7.45-6.04 13.49-13.489 13.49-7.45 0-13.49-6.04-13.49-13.49z" fill="#111111" data-fill-palette-color="accent"></path><path d="M212.686 127.758c0-7.45 6.04-13.49 13.49-13.49 7.45 0 13.49 6.04 13.489 13.49 0 7.45-6.04 13.49-13.489 13.49-7.45 0-13.49-6.04-13.49-13.49z" fill="#111111" data-fill-palette-color="accent"></path></g><g id="text-1"></g></svg></g></svg></g></svg></g><defs></defs></svg><rect width="395.52" height="142.43150491109836" fill="none" stroke="none" visibility="hidden"></rect></g></svg></g></svg>