<svg xmlns="http://www.w3.org/2000/svg" version="1.1" xmlns:xlink="http://www.w3.org/1999/xlink" xmlns:svgjs="http://svgjs.dev/svgjs" width="1500" height="1500" viewBox="0 0 1500 1500"><rect width="1500" height="1500" fill="#ffffff"></rect><g transform="matrix(0.6666666666666666,0,0,0.6666666666666666,249.39393939393938,650.8181278134966)"><svg viewBox="0 0 396 78" data-background-color="#f9f7f4" preserveAspectRatio="xMidYMid meet" height="295" width="1500" xmlns="http://www.w3.org/2000/svg" xmlns:xlink="http://www.w3.org/1999/xlink"><g id="tight-bounds" transform="matrix(1,0,0,1,0.2400000000000091,0.33653913837591176)"><svg viewBox="0 0 395.52 77.32133639356523" height="77.32133639356523" width="395.52"><g><svg viewBox="0 0 528.2430777973581 103.26775059653563" height="77.32133639356523" width="395.52"><g><rect width="4.717243042112272" height="89.66809024301212" x="407.868803775163" y="6.799830176761759" fill="#000000" opacity="1" stroke-width="0" stroke="transparent" fill-opacity="1" class="rect-yte-0" data-fill-palette-color="primary" rx="1%" id="yte-0" data-palette-color="#ff5a00"></rect></g><g transform="matrix(1,0,0,1,0,14.272171030346101)"><svg viewBox="0 0 395.52 74.72340853584343" height="74.72340853584343" width="395.52"><g id="textblocktransform"><svg viewBox="0 0 395.52 74.72340853584343" height="74.72340853584343" width="395.52" id="textblock"><g><svg viewBox="0 0 395.52 52.30859458463806" height="52.30859458463806" width="395.52"><g transform="matrix(1,0,0,1,0,0)"><svg width="395.52" viewBox="0.8 -32.55 271.42 35.9" height="52.30859458463806" data-palette-color="#ff5a00"><path d="M21.15-2.05L21.15-2.05Q19.95-0.2 19.95 0.35 19.95 0.9 20.4 1.15L20.4 1.15Q20.4 1.2 19.5 1.9L19.5 1.9Q18.7 2.3 17.7 2.3 16.7 2.3 16.25 2.08 15.8 1.85 15.95 1.35L15.95 1.35Q16.65-0.9 21.2-7.68 25.75-14.45 27.3-17.25L27.3-17.25Q30.65-23.3 30.65-26.9L30.65-26.9Q30.65-28.4 30.15-29.45L30.15-29.45Q29.15-31.5 25.4-31.5L25.4-31.5Q19.55-31.5 13.3-26.45L13.3-26.45Q8.3-22.4 5.65-17.88 3-13.35 3-9.8L3-9.8Q3-4.7 7.5-4.6L7.5-4.6Q7.7-4.6 7.9-4.6L7.9-4.6Q13.65-4.6 16.8-8.75L16.8-8.75Q18-10.4 18-11.55 18-12.7 17.5-13L17.5-13Q17.45-13.05 17.45-13.2 17.45-13.35 17.75-13.35L17.75-13.35Q19.05-13.35 19.05-11.65L19.05-11.65Q19.05-10.6 18.03-8.8 17-7 14.4-5.4 11.8-3.8 8.35-3.8 4.9-3.8 2.85-5.95 0.8-8.1 0.8-11.6L0.8-11.6Q0.8-19.5 11.1-27.75L11.1-27.75Q13.75-29.85 18.07-31.2 22.4-32.55 26.35-32.55 30.3-32.55 31.73-31.18 33.15-29.8 33.15-27.5L33.15-27.5Q33.15-24 30.3-18.05L30.3-18.05Q29.4-16.2 26.25-11.3L26.25-11.3 30.1-16.2Q32.9-19.85 39.8-26.6L39.8-26.6Q41.3-28.05 43.13-29.03 44.95-30 46.25-30L46.25-30Q48.05-30 48.05-28.1L48.05-28.1Q48.05-26.45 46.48-23.13 44.9-19.8 43.3-16.82 41.7-13.85 41.35-12.93 41-12 40.85-11.45 40.7-10.9 40.65-10.85L40.65-10.85Q40.8-11.1 43.95-14.68 47.1-18.25 53.25-23.6L53.25-23.6 61.25-30.2Q62.2-31 62.95-31 63.7-31 64.17-29.75 64.65-28.5 64.65-27.73 64.65-26.95 62.25-24.5L62.25-24.5Q56-18.1 51.65-10.5 47.3-2.9 47.3 0.35L47.3 0.35Q47.3 1.2 47.6 1.53 47.9 1.85 48.55 1.73 49.2 1.6 51.28 0.7 53.35-0.2 54-0.35L54-0.35Q54.25-0.25 54.25-0.1L54.25-0.1Q54.25 0.65 51.63 2 49 3.35 47.68 3.35 46.35 3.35 46.05 2.9L46.05 2.9Q45.15 1.6 45.15-0.25L45.15-0.25Q45.15-4.55 49.75-12.6L49.75-12.6Q52.7-17.65 58.85-26.2L58.85-26.2Q54.05-22.3 45.85-14.25 37.65-6.2 35.1-1.65L35.1-1.65Q33.8 0.7 31.95 0.7L31.95 0.7Q31.1 0.7 31.1 0.1L31.1 0.1Q31.1-0.1 32.13-1.7 33.15-3.3 36.65-9.2L36.65-9.2Q45.25-24.15 45.25-27.2L45.25-27.2Q45.25-28 44.7-28L44.7-28Q43.9-28 42.35-26.65L42.35-26.65Q36.8-22 30.55-14.5 24.3-7 21.15-2.05ZM73.4-14.95L73.4-14.95 74.1-15.1Q74.65-15.1 75.15-14.65 75.65-14.2 75.65-13.95 75.65-13.7 72.55-9.13 69.45-4.55 69.45-2.75L69.45-2.75Q69.45-2.6 69.5-2.45L69.5-2.45Q69.75-1.3 70.6-1.3L70.6-1.3Q73.2-1.3 80.1-9.9L80.1-9.9Q80.25-10.1 80.45-10.1 80.65-10.1 80.65-9.73 80.65-9.35 80.2-8.75L80.2-8.75Q73.8-0.2 70.45-0.2L70.45-0.2Q70-0.2 69.6-0.35L69.6-0.35Q67.4-1.2 67.4-3.65L67.4-3.65Q67.4-4.5 67.6-5.35L67.6-5.35 64.5-2.35Q61.55 0.25 60.22 0.25 58.9 0.25 57.7-0.6L57.7-0.6Q56.35-1.6 56.35-3.25L56.35-3.25Q56.35-6.9 61.45-11.98 66.55-17.05 70.8-17.05L70.8-17.05Q72.45-17.05 73-15.9L73-15.9Q73.15-15.5 73.25-15.23 73.35-14.95 73.4-14.95ZM58.45-2.65L58.45-2.65Q58.45-0.85 59.7-0.85L59.7-0.85Q62.6-0.85 67.6-7.2L67.6-7.2 72.9-14.5Q72.5-15.2 71.6-15.2L71.6-15.2Q68.55-15.2 63.5-10.48 58.45-5.75 58.45-2.65ZM88.2-1.8L86.6-0.75Q85.15 0.1 83.02 0.1 80.9 0.1 79.77-1.3 78.65-2.7 77.85-5.75L77.85-5.75Q76.95-4.85 76.6-4.85L76.6-4.85Q76.35-4.85 76.35-5.2 76.35-5.55 76.6-5.8L76.6-5.8Q78.25-7.85 82.2-11.7L82.2-11.7 88.5-17.6Q91.2-20.15 91.7-20.15L91.7-20.15Q93.3-20.15 93.3-18.95L93.3-18.95Q93.3-18.35 92.82-17.78 92.35-17.2 92.12-16.88 91.9-16.55 91.65-16.25L91.65-16.25Q90.75-14.7 89.82-9.85 88.9-5 88.4-3.1L88.4-3.1Q92.55-3.15 96.95-8.5L96.95-8.5Q97.45-9 97.7-9 97.95-9 97.95-8.68 97.95-8.35 97.5-7.8L97.5-7.8Q94.6-4.4 92.1-3.05L92.1-3.05Q90.6-2.3 88.2-1.8L88.2-1.8ZM79.85-6.3L79.85-6.3Q79.85-4.6 80.97-3.53 82.1-2.45 83.5-2.45 84.9-2.45 85.65-3L85.65-3Q86.65-3.55 87.62-7.6 88.6-11.65 88.8-14.75L88.8-14.75 89-16.45Q86.25-14.4 83.12-11.15 80-7.9 79.9-6.85L79.9-6.85Q79.85-6.55 79.85-6.3ZM111.94-14.95L111.94-14.95 112.64-15.1Q113.19-15.1 113.69-14.65 114.19-14.2 114.19-13.95 114.19-13.7 111.09-9.13 107.99-4.55 107.99-2.75L107.99-2.75Q107.99-2.6 108.04-2.45L108.04-2.45Q108.29-1.3 109.14-1.3L109.14-1.3Q111.74-1.3 118.64-9.9L118.64-9.9Q118.79-10.1 118.99-10.1 119.19-10.1 119.19-9.73 119.19-9.35 118.74-8.75L118.74-8.75Q112.34-0.2 108.99-0.2L108.99-0.2Q108.54-0.2 108.14-0.35L108.14-0.35Q105.94-1.2 105.94-3.65L105.94-3.65Q105.94-4.5 106.14-5.35L106.14-5.35 103.04-2.35Q100.09 0.25 98.77 0.25 97.44 0.25 96.24-0.6L96.24-0.6Q94.89-1.6 94.89-3.25L94.89-3.25Q94.89-6.9 99.99-11.98 105.09-17.05 109.34-17.05L109.34-17.05Q110.99-17.05 111.54-15.9L111.54-15.9Q111.69-15.5 111.79-15.23 111.89-14.95 111.94-14.95ZM96.99-2.65L96.99-2.65Q96.99-0.85 98.24-0.85L98.24-0.85Q101.14-0.85 106.14-7.2L106.14-7.2 111.44-14.5Q111.04-15.2 110.14-15.2L110.14-15.2Q107.09-15.2 102.04-10.48 96.99-5.75 96.99-2.65ZM117.89-2.5Q117.89-1 119.54-1 121.19-1 123.79-2.75 126.39-4.5 128.84-7.5L128.84-7.5Q129.44-8.3 129.79-8.3 130.14-8.3 130.14-8L130.14-8Q130.14-7.7 128.09-5.4L128.09-5.4Q123.09 0.1 119.74 0.1L119.74 0.1Q118.09 0.1 116.94-0.68 115.79-1.45 115.79-3.08 115.79-4.7 116.64-6.85L116.64-6.85Q118.09-10.25 121.29-15.4L121.29-15.4Q127.14-24.9 129.59-24.9L129.59-24.9Q130.09-24.9 130.62-24.53 131.14-24.15 131.19-23.7L131.19-23.7Q130.04-22.15 126.77-17.75 123.49-13.35 122.24-11.43 120.99-9.5 120.37-8.55 119.74-7.6 119.44-7.08 119.14-6.55 118.74-5.7L118.74-5.7Q117.89-4 117.89-2.5ZM144.69-14.95L144.69-14.95 145.39-15.1Q145.94-15.1 146.44-14.65 146.94-14.2 146.94-13.95 146.94-13.7 143.84-9.13 140.74-4.55 140.74-2.75L140.74-2.75Q140.74-2.6 140.79-2.45L140.79-2.45Q141.04-1.3 141.89-1.3L141.89-1.3Q144.49-1.3 151.39-9.9L151.39-9.9Q151.54-10.1 151.74-10.1 151.94-10.1 151.94-9.73 151.94-9.35 151.49-8.75L151.49-8.75Q145.09-0.2 141.74-0.2L141.74-0.2Q141.29-0.2 140.89-0.35L140.89-0.35Q138.69-1.2 138.69-3.65L138.69-3.65Q138.69-4.5 138.89-5.35L138.89-5.35 135.79-2.35Q132.84 0.25 131.51 0.25 130.19 0.25 128.99-0.6L128.99-0.6Q127.64-1.6 127.64-3.25L127.64-3.25Q127.64-6.9 132.74-11.98 137.84-17.05 142.09-17.05L142.09-17.05Q143.74-17.05 144.29-15.9L144.29-15.9Q144.44-15.5 144.54-15.23 144.64-14.95 144.69-14.95ZM129.74-2.65L129.74-2.65Q129.74-0.85 130.99-0.85L130.99-0.85Q133.89-0.85 138.89-7.2L138.89-7.2 144.19-14.5Q143.79-15.2 142.89-15.2L142.89-15.2Q139.84-15.2 134.79-10.48 129.74-5.75 129.74-2.65ZM179.73-2.05L179.73-2.05Q178.53-0.2 178.53 0.35 178.53 0.9 178.98 1.15L178.98 1.15Q178.98 1.2 178.08 1.9L178.08 1.9Q177.28 2.3 176.28 2.3 175.28 2.3 174.83 2.08 174.38 1.85 174.53 1.35L174.53 1.35Q175.23-0.9 179.78-7.68 184.33-14.45 185.88-17.25L185.88-17.25Q189.23-23.3 189.23-26.9L189.23-26.9Q189.23-28.4 188.73-29.45L188.73-29.45Q187.73-31.5 183.98-31.5L183.98-31.5Q178.13-31.5 171.88-26.45L171.88-26.45Q166.88-22.4 164.23-17.88 161.58-13.35 161.58-9.8L161.58-9.8Q161.58-4.7 166.08-4.6L166.08-4.6Q166.28-4.6 166.48-4.6L166.48-4.6Q172.23-4.6 175.38-8.75L175.38-8.75Q176.58-10.4 176.58-11.55 176.58-12.7 176.08-13L176.08-13Q176.03-13.05 176.03-13.2 176.03-13.35 176.33-13.35L176.33-13.35Q177.63-13.35 177.63-11.65L177.63-11.65Q177.63-10.6 176.61-8.8 175.58-7 172.98-5.4 170.38-3.8 166.93-3.8 163.48-3.8 161.43-5.95 159.38-8.1 159.38-11.6L159.38-11.6Q159.38-19.5 169.68-27.75L169.68-27.75Q172.33-29.85 176.66-31.2 180.98-32.55 184.93-32.55 188.88-32.55 190.31-31.18 191.73-29.8 191.73-27.5L191.73-27.5Q191.73-24 188.88-18.05L188.88-18.05Q187.98-16.2 184.83-11.3L184.83-11.3 188.68-16.2Q191.48-19.85 198.38-26.6L198.38-26.6Q199.88-28.05 201.71-29.03 203.53-30 204.83-30L204.83-30Q206.63-30 206.63-28.1L206.63-28.1Q206.63-26.45 205.06-23.13 203.48-19.8 201.88-16.82 200.28-13.85 199.93-12.93 199.58-12 199.43-11.45 199.28-10.9 199.23-10.85L199.23-10.85Q199.38-11.1 202.53-14.68 205.68-18.25 211.83-23.6L211.83-23.6 219.83-30.2Q220.78-31 221.53-31 222.28-31 222.76-29.75 223.23-28.5 223.23-27.73 223.23-26.95 220.83-24.5L220.83-24.5Q214.58-18.1 210.23-10.5 205.88-2.9 205.88 0.35L205.88 0.35Q205.88 1.2 206.18 1.53 206.48 1.85 207.13 1.73 207.78 1.6 209.86 0.7 211.93-0.2 212.58-0.35L212.58-0.35Q212.83-0.25 212.83-0.1L212.83-0.1Q212.83 0.65 210.21 2 207.58 3.35 206.26 3.35 204.93 3.35 204.63 2.9L204.63 2.9Q203.73 1.6 203.73-0.25L203.73-0.25Q203.73-4.55 208.33-12.6L208.33-12.6Q211.28-17.65 217.43-26.2L217.43-26.2Q212.63-22.3 204.43-14.25 196.23-6.2 193.68-1.65L193.68-1.65Q192.38 0.7 190.53 0.7L190.53 0.7Q189.68 0.7 189.68 0.1L189.68 0.1Q189.68-0.1 190.71-1.7 191.73-3.3 195.23-9.2L195.23-9.2Q203.83-24.15 203.83-27.2L203.83-27.2Q203.83-28 203.28-28L203.28-28Q202.48-28 200.93-26.65L200.93-26.65Q195.38-22 189.13-14.5 182.88-7 179.73-2.05ZM226.23-20.4Q226.98-20.4 227.66-19.93 228.33-19.45 228.33-18.8 228.33-18.15 227.71-17.68 227.08-17.2 226.33-17.2 225.58-17.2 224.96-17.75 224.33-18.3 224.33-19L224.33-19Q224.33-20.4 226.23-20.4L226.23-20.4ZM217.18 0.55L217.18 0.55Q214.63 0.55 214.63-2.75L214.63-2.75Q214.63-5.45 217.58-10.23 220.53-15 222.33-15.05L222.33-15.05Q222.83-15.05 223.46-14.65 224.08-14.25 224.08-13.85L224.08-13.85Q223.83-13.5 223.48-13.08 223.13-12.65 222.73-12.15 222.33-11.65 221.63-10.73 220.93-9.8 220.28-8.95L220.28-8.95Q216.53-4.1 216.53-2.27 216.53-0.45 217.78-0.45L217.78-0.45Q218.83-0.45 220.63-1.6L220.63-1.6Q224.83-4.2 227.28-7.3L227.28-7.3Q228.18-8.45 228.51-8.45 228.83-8.45 228.83-8.05 228.83-7.65 227.68-6.45 226.53-5.25 225.86-4.55 225.18-3.85 224.93-3.63 224.68-3.4 224.01-2.78 223.33-2.15 222.98-1.9 222.63-1.65 221.98-1.15 221.33-0.65 220.83-0.43 220.33-0.2 219.68 0.1L219.68 0.1Q218.63 0.55 217.18 0.55ZM228.63-2.5Q228.63-1 230.28-1 231.93-1 234.53-2.75 237.13-4.5 239.58-7.5L239.58-7.5Q240.18-8.3 240.53-8.3 240.88-8.3 240.88-8L240.88-8Q240.88-7.7 238.83-5.4L238.83-5.4Q233.83 0.1 230.48 0.1L230.48 0.1Q228.83 0.1 227.68-0.68 226.53-1.45 226.53-3.08 226.53-4.7 227.38-6.85L227.38-6.85Q228.83-10.25 232.03-15.4L232.03-15.4Q237.88-24.9 240.33-24.9L240.33-24.9Q240.83-24.9 241.35-24.53 241.88-24.15 241.93-23.7L241.93-23.7Q240.78-22.15 237.5-17.75 234.23-13.35 232.98-11.43 231.73-9.5 231.1-8.55 230.48-7.6 230.18-7.08 229.88-6.55 229.48-5.7L229.48-5.7Q228.63-4 228.63-2.5ZM241.38 0.65L241.38 0.65Q240.83 0.65 240.38 0.5L240.38 0.5Q237.18-0.4 237.18-3.1L237.18-3.1Q237.18-6.6 241.58-11.2 245.98-15.8 249.48-15.8L249.48-15.8Q250.63-15.8 251.35-15.18 252.08-14.55 252.08-13.65L252.08-13.65Q252.08-10.85 247.85-8.3 243.63-5.75 240.98-5.75L240.98-5.75Q240.58-5.75 240.28-5.85L240.28-5.85Q239.53-4.5 239.53-3L239.53-3Q239.53-0.4 242-0.4 244.48-0.4 248.43-3.75L248.43-3.75Q251.48-6.2 253.63-8.95L253.63-8.95Q254.08-9.55 254.4-9.55 254.73-9.55 254.73-9.25 254.73-8.95 254.33-8.4L254.33-8.4Q251.63-4.85 247.83-2.1 244.03 0.65 241.38 0.65ZM250.83-13.75L250.83-13.75Q250.83-14.35 249.55-14.35 248.28-14.35 245.93-12.4L245.93-12.4Q242.78-9.8 241.03-6.95L241.03-6.95Q241.33-6.85 241.68-6.85L241.68-6.85Q243.58-6.85 246.75-8.88 249.93-10.9 250.73-13.3L250.73-13.3Q250.83-13.55 250.83-13.75ZM262.47-1.8L260.87-0.75Q259.42 0.1 257.3 0.1 255.17 0.1 254.05-1.3 252.92-2.7 252.12-5.75L252.12-5.75Q251.22-4.85 250.87-4.85L250.87-4.85Q250.62-4.85 250.62-5.2 250.62-5.55 250.87-5.8L250.87-5.8Q252.52-7.85 256.47-11.7L256.47-11.7 262.77-17.6Q265.47-20.15 265.97-20.15L265.97-20.15Q267.57-20.15 267.57-18.95L267.57-18.95Q267.57-18.35 267.1-17.78 266.62-17.2 266.4-16.88 266.17-16.55 265.92-16.25L265.92-16.25Q265.02-14.7 264.1-9.85 263.17-5 262.67-3.1L262.67-3.1Q266.82-3.15 271.22-8.5L271.22-8.5Q271.72-9 271.97-9 272.22-9 272.22-8.68 272.22-8.35 271.77-7.8L271.77-7.8Q268.87-4.4 266.37-3.05L266.37-3.05Q264.87-2.3 262.47-1.8L262.47-1.8ZM254.12-6.3L254.12-6.3Q254.12-4.6 255.25-3.53 256.37-2.45 257.77-2.45 259.17-2.45 259.92-3L259.92-3Q260.92-3.55 261.9-7.6 262.87-11.65 263.07-14.75L263.07-14.75 263.27-16.45Q260.52-14.4 257.4-11.15 254.27-7.9 254.17-6.85L254.17-6.85Q254.12-6.55 254.12-6.3Z" opacity="1" transform="matrix(1,0,0,1,0,0)" fill="#000000" class="wordmark-text-0" data-fill-palette-color="primary" id="text-0"></path></svg></g></svg></g><g transform="matrix(1,0,0,1,163.310208,64.65739835980108)"><svg viewBox="0 0 232.209792 10.066010176042356" height="10.066010176042356" width="232.209792"><g transform="matrix(1,0,0,1,0,0)"><svg width="232.209792" viewBox="1.1 -32.35 755.41 32.75" height="10.066010176042356" data-palette-color="#ff5a00"><path d="M23.15-32.05L23.45-31.65 23.15-28.55 17.55-28.85 14.3-28.85 14.15-10 14.3 0 10.25 0 10.55-9.65 10.3-28.85 7.05-28.85 1.35-28.55 1.1-28.95 1.4-32.05 23.15-32.05ZM49.85-24.9L49.7-7.8 49.8 0 46.1 0 46.25-7.5 46.2-10.9 32.65-10.85 32.6-7.8 32.7 0 29 0 29.15-7.5 29-24.9 32.75-24.9 32.65-14.2 39.4-14.15 46.2-14.2 46.1-24.9 49.85-24.9ZM67.34-3L74-3.2 74.3-2.9 73.95 0 58.8 0 58.95-7.5 58.8-24.9 74.05-24.9 74.3-24.6 74-21.7 67.7-21.9 62.5-21.85 62.45-14.3 67.4-14.25 71.75-14.4 72-14.05 71.7-11.1 67.09-11.25 62.45-11.2 62.4-7.8 62.45-3.05 67.34-3ZM100.54-32.25Q107.39-32.25 111.04-28.35 114.69-24.45 114.69-17.15L114.69-17.15Q114.69-8.7 110.74-4.2 106.79 0.3 99.39 0.3L99.39 0.3Q97.34 0.3 94.42 0.23 91.49 0.15 88.99 0L88.99 0 88.94 0 89.19-9.65 88.94-32.05 88.99-32.05 100.54-32.25ZM100.04-3.05Q105.14-3.05 107.87-6.38 110.59-9.7 110.59-16.3L110.59-16.3Q110.59-28.9 100.24-28.9L100.24-28.9Q97.09-28.9 92.99-28.7L92.99-28.7 92.79-10 92.94-3.35Q94.49-3.2 96.67-3.13 98.84-3.05 100.04-3.05L100.04-3.05ZM129.64-3L136.29-3.2 136.59-2.9 136.24 0 121.09 0 121.24-7.5 121.09-24.9 136.34-24.9 136.59-24.6 136.29-21.7 129.99-21.9 124.79-21.85 124.74-14.3 129.69-14.25 134.04-14.4 134.29-14.05 133.99-11.1 129.39-11.25 124.74-11.2 124.69-7.8 124.74-3.05 129.64-3ZM156.03-3.15L156.24-2.8 155.99 0 142.74 0 142.89-7.5 142.74-24.9 146.49-24.9 146.34-7.8 146.44-3.15 156.03-3.15ZM165.43-24.9L165.28-7.8 165.38 0 161.68 0 161.83-7.5 161.68-24.9 165.43-24.9ZM183.48-25.15Q187.63-25.15 190.68-23.4L190.68-23.4 189.98-19.95 189.53-19.8Q188.28-20.85 186.63-21.45 184.98-22.05 183.08-22.05L183.08-22.05Q179.38-22.05 177.43-19.68 175.48-17.3 175.48-12.6L175.48-12.6Q175.48-7.85 177.43-5.35 179.38-2.85 183.08-2.85L183.08-2.85Q184.88-2.85 186.71-3.48 188.53-4.1 189.98-5.15L189.98-5.15 190.43-5 190.08-1.55Q186.68 0.3 182.93 0.3L182.93 0.3Q177.43 0.3 174.48-2.98 171.53-6.25 171.53-12.3L171.53-12.3Q171.53-18.45 174.66-21.8 177.78-25.15 183.48-25.15L183.48-25.15ZM200.58-24.9L200.43-7.8 200.53 0 196.83 0 196.98-7.5 196.83-24.9 200.58-24.9ZM218.73-25.2Q224.18-25.2 227.1-22 230.03-18.8 230.03-12.95L230.03-12.95Q230.03-6.6 226.9-3.13 223.78 0.35 217.98 0.35L217.98 0.35Q212.58 0.35 209.63-2.93 206.68-6.2 206.68-12.25L206.68-12.25Q206.68-18.45 209.83-21.83 212.98-25.2 218.73-25.2L218.73-25.2ZM218.38-22.05Q214.43-22.05 212.5-19.8 210.58-17.55 210.58-12.7L210.58-12.7Q210.58-7.5 212.48-5.15 214.38-2.8 218.28-2.8L218.28-2.8Q222.28-2.8 224.23-5.1 226.18-7.4 226.18-12.3L226.18-12.3Q226.18-17.35 224.25-19.7 222.33-22.05 218.38-22.05L218.38-22.05ZM256.07-24.9L255.92-12.25 255.92-8.65Q255.97-4.4 253.35-2.05 250.72 0.3 245.82 0.3L245.82 0.3Q240.97 0.3 238.42-2.02 235.87-4.35 235.97-8.65L235.97-8.65 236.02-12.45 235.97-24.9 239.72-24.9 239.52-9.25Q239.47-6.1 241.1-4.5 242.72-2.9 245.97-2.9L245.97-2.9Q249.17-2.9 250.82-4.5 252.47-6.1 252.42-9.25L252.42-9.25 252.27-24.9 256.07-24.9ZM271.57-25.15Q274.62-25.15 277.67-23.95L277.67-23.95 277.02-20.25 276.42-20.1Q275.02-21.2 273.77-21.73 272.52-22.25 271.17-22.25L271.17-22.25Q269.02-22.25 267.77-21.13 266.52-20 266.52-18.55L266.52-18.55Q266.52-17.1 267.75-16.2 268.97-15.3 271.52-14.2L271.52-14.2Q273.77-13.2 275.1-12.4 276.42-11.6 277.4-10.28 278.37-8.95 278.37-7.05L278.37-7.05Q278.37-5.1 277.32-3.43 276.27-1.75 274.25-0.73 272.22 0.3 269.42 0.3L269.42 0.3Q267.67 0.3 265.75-0.13 263.82-0.55 262.17-1.4L262.17-1.4 262.62-5.35 263.12-5.55Q264.52-4.15 266.4-3.38 268.27-2.6 269.87-2.6L269.87-2.6Q271.97-2.6 273.32-3.73 274.67-4.85 274.67-6.45L274.67-6.45Q274.67-7.95 273.45-8.85 272.22-9.75 269.62-10.95L269.62-10.95Q267.47-11.9 266.1-12.7 264.72-13.5 263.77-14.83 262.82-16.15 262.82-18.05L262.82-18.05Q262.82-20.05 263.9-21.65 264.97-23.25 266.95-24.2 268.92-25.15 271.57-25.15L271.57-25.15ZM333.47-32.05L321.97 0 317.82 0 311.57-18.6 311.22-18.6 304.62 0 300.47 0 290.27-32.05 294.27-32.05 294.82-28.95 302.62-4.45 302.97-4.45 309.87-23.95 307.17-32.05 311.27-32.05 312.02-28.6 319.92-4.45 320.22-4.45 328.92-28.75 329.67-32.05 333.47-32.05ZM347.36-25.2Q352.81-25.2 355.74-22 358.66-18.8 358.66-12.95L358.66-12.95Q358.66-6.6 355.54-3.13 352.41 0.35 346.61 0.35L346.61 0.35Q341.21 0.35 338.26-2.93 335.31-6.2 335.31-12.25L335.31-12.25Q335.31-18.45 338.46-21.83 341.61-25.2 347.36-25.2L347.36-25.2ZM347.01-22.05Q343.06-22.05 341.14-19.8 339.21-17.55 339.21-12.7L339.21-12.7Q339.21-7.5 341.11-5.15 343.01-2.8 346.91-2.8L346.91-2.8Q350.91-2.8 352.86-5.1 354.81-7.4 354.81-12.3L354.81-12.3Q354.81-17.35 352.89-19.7 350.96-22.05 347.01-22.05L347.01-22.05ZM376.86-10.05Q379.91-5.4 383.61-0.9L383.61-0.9 383.56-0.4Q381.46 0.25 380.11 0.35L380.11 0.35 379.46-0.05Q375.66-5.8 373.71-9.1L373.71-9.1 369.01-9.05 369.01-7.8 369.11 0 365.41 0 365.56-7.5 365.41-24.9 373.91-24.95Q377.86-24.95 379.99-23.1 382.11-21.25 382.11-17.75L382.11-17.75Q382.11-15.2 380.74-13.2 379.36-11.2 376.86-10.05L376.86-10.05ZM369.11-21.9L369.06-12.15 373.76-12Q378.21-13.25 378.21-17.45L378.21-17.45Q378.21-19.65 376.91-20.75 375.61-21.85 372.96-21.95L372.96-21.95 369.11-21.9ZM403.41-3.15L403.61-2.8 403.36 0 390.11 0 390.26-7.5 390.11-24.9 393.86-24.9 393.71-7.8 393.81-3.15 403.41-3.15ZM418.81-25.1Q424.51-25.1 427.53-22.05 430.56-19 430.56-13.3L430.56-13.3Q430.56-6.75 427.26-3.25 423.96 0.25 417.81 0.25L417.81 0.25Q416.06 0.25 413.63 0.18 411.21 0.1 409.06 0L409.06 0 409.21-7.5 409.06-24.9 418.81-25.1ZM418.41-2.8Q422.41-2.8 424.58-5.23 426.76-7.65 426.76-12.55L426.76-12.55Q426.76-17.35 424.71-19.65 422.66-21.95 418.51-21.95L418.51-21.95Q416.06-21.95 412.76-21.75L412.76-21.75 412.66-7.8 412.71-3.1Q414.16-3 415.76-2.9 417.36-2.8 418.41-2.8L418.41-2.8ZM457.35-32.35Q463.95-32.35 467.48-28.3 471-24.25 471-16.65L471-16.65Q471-8.45 467.25-4.03 463.5 0.4 456.55 0.4L456.55 0.4Q450.05 0.4 446.53-3.8 443-8 443-15.75L443-15.75Q443-23.75 446.73-28.05 450.45-32.35 457.35-32.35L457.35-32.35ZM457.1-29.1Q447.1-29.1 447.1-16.2L447.1-16.2Q447.1-9.35 449.53-6.05 451.95-2.75 456.85-2.75L456.85-2.75Q466.85-2.75 466.85-15.9L466.85-15.9Q466.85-22.6 464.43-25.85 462-29.1 457.1-29.1L457.1-29.1ZM485.35-21.9L480.8-21.85 480.75-13.65 485.05-13.6 489.45-13.75 489.7-13.4 489.45-10.55 484.7-10.6 480.7-10.55 480.7-7.8 480.8 0 477.1 0 477.2-7.5 477.1-24.9 491.6-24.9 491.8-24.6 491.5-21.7 485.35-21.9ZM517.54-32.05L528.24 0 524.14 0 523.39-3.2 521.59-8.7 514.39-8.85 507.89-8.7 505.94-3.4 505.14 0 501.14 0 512.89-32.05 517.54-32.05ZM514.74-12L520.49-12.1 515.29-27.9 514.94-27.9 509.14-12.1 514.74-12ZM547.04-3.15L547.24-2.8 546.99 0 533.74 0 533.89-7.5 533.74-24.9 537.49-24.9 537.34-7.8 537.44-3.15 547.04-3.15ZM565.89-3.15L566.09-2.8 565.84 0 552.59 0 552.74-7.5 552.59-24.9 556.34-24.9 556.19-7.8 556.29-3.15 565.89-3.15ZM591.38-32.3Q596.43-32.3 600.13-29.9L600.13-29.9 599.33-26.25 598.88-26.15Q595.53-28.95 591.18-28.95L591.18-28.95Q586.43-28.95 583.88-25.68 581.33-22.4 581.33-16.1L581.33-16.1Q581.33-9.75 583.88-6.4 586.43-3.05 591.08-3.05L591.08-3.05Q593.28-3.05 595.46-3.85 597.63-4.65 599.43-6.1L599.43-6.1 599.93-5.85 599.58-2.05Q595.23 0.35 590.73 0.35L590.73 0.35Q584.28 0.35 580.73-3.83 577.18-8 577.18-15.75L577.18-15.75Q577.18-23.7 580.88-28 584.58-32.3 591.38-32.3L591.38-32.3ZM625.08-24.9L624.93-12.25 624.93-8.65Q624.98-4.4 622.35-2.05 619.73 0.3 614.83 0.3L614.83 0.3Q609.98 0.3 607.43-2.02 604.88-4.35 604.98-8.65L604.98-8.65 605.03-12.45 604.98-24.9 608.73-24.9 608.53-9.25Q608.48-6.1 610.1-4.5 611.73-2.9 614.98-2.9L614.98-2.9Q618.18-2.9 619.83-4.5 621.48-6.1 621.43-9.25L621.43-9.25 621.28-24.9 625.08-24.9ZM636.98-24.9L636.83-7.8 636.93 0 633.23 0 633.38-7.5 633.23-24.9 636.98-24.9ZM653.52-25.15Q656.57-25.15 659.62-23.95L659.62-23.95 658.97-20.25 658.37-20.1Q656.97-21.2 655.72-21.73 654.47-22.25 653.12-22.25L653.12-22.25Q650.97-22.25 649.72-21.13 648.47-20 648.47-18.55L648.47-18.55Q648.47-17.1 649.7-16.2 650.92-15.3 653.47-14.2L653.47-14.2Q655.72-13.2 657.05-12.4 658.37-11.6 659.35-10.28 660.32-8.95 660.32-7.05L660.32-7.05Q660.32-5.1 659.27-3.43 658.22-1.75 656.2-0.73 654.17 0.3 651.37 0.3L651.37 0.3Q649.62 0.3 647.7-0.13 645.77-0.55 644.12-1.4L644.12-1.4 644.57-5.35 645.07-5.55Q646.47-4.15 648.35-3.38 650.22-2.6 651.82-2.6L651.82-2.6Q653.92-2.6 655.27-3.73 656.62-4.85 656.62-6.45L656.62-6.45Q656.62-7.95 655.4-8.85 654.17-9.75 651.57-10.95L651.57-10.95Q649.42-11.9 648.05-12.7 646.67-13.5 645.72-14.83 644.77-16.15 644.77-18.05L644.77-18.05Q644.77-20.05 645.85-21.65 646.92-23.25 648.9-24.2 650.87-25.15 653.52-25.15L653.52-25.15ZM671.17-24.9L671.02-7.8 671.12 0 667.42 0 667.57-7.5 667.42-24.9 671.17-24.9ZM701.17-25L701.02-7.45 701.07 0 697.07 0 683.97-19 683.72-19 683.67-8.3 683.77 0 680.37 0 680.52-7.35 680.42-24.9 684.37-24.9 697.47-5.9 697.82-5.9 697.72-24.75 701.17-25ZM718.72-3L725.37-3.2 725.67-2.9 725.32 0 710.17 0 710.32-7.5 710.17-24.9 725.42-24.9 725.67-24.6 725.37-21.7 719.07-21.9 713.87-21.85 713.82-14.3 718.77-14.25 723.12-14.4 723.37-14.05 723.07-11.1 718.47-11.25 713.82-11.2 713.77-7.8 713.82-3.05 718.72-3ZM739.26-25.15Q742.31-25.15 745.36-23.95L745.36-23.95 744.71-20.25 744.11-20.1Q742.71-21.2 741.46-21.73 740.21-22.25 738.86-22.25L738.86-22.25Q736.71-22.25 735.46-21.13 734.21-20 734.21-18.55L734.21-18.55Q734.21-17.1 735.44-16.2 736.66-15.3 739.21-14.2L739.21-14.2Q741.46-13.2 742.79-12.4 744.11-11.6 745.09-10.28 746.06-8.95 746.06-7.05L746.06-7.05Q746.06-5.1 745.01-3.43 743.96-1.75 741.94-0.73 739.91 0.3 737.11 0.3L737.11 0.3Q735.36 0.3 733.44-0.13 731.51-0.55 729.86-1.4L729.86-1.4 730.31-5.35 730.81-5.55Q732.21-4.15 734.09-3.38 735.96-2.6 737.56-2.6L737.56-2.6Q739.66-2.6 741.01-3.73 742.36-4.85 742.36-6.45L742.36-6.45Q742.36-7.95 741.14-8.85 739.91-9.75 737.31-10.95L737.31-10.95Q735.16-11.9 733.79-12.7 732.41-13.5 731.46-14.83 730.51-16.15 730.51-18.05L730.51-18.05Q730.51-20.05 731.59-21.65 732.66-23.25 734.64-24.2 736.61-25.15 739.26-25.15L739.26-25.15ZM756.06-25.35L756.51-24.9 755.61-8.05 753.36-7.8 752.96-8.25 752.96-24.75 753.36-25.25 756.06-25.35ZM754.21-4Q755.16-4 755.69-3.45 756.21-2.9 756.21-1.95L756.21-1.95Q756.21-0.95 755.64-0.35 755.06 0.25 754.06 0.25L754.06 0.25Q753.11 0.25 752.56-0.3 752.01-0.85 752.01-1.8L752.01-1.8Q752.01-2.8 752.61-3.4 753.21-4 754.21-4L754.21-4Z" opacity="1" transform="matrix(1,0,0,1,0,0)" fill="#000000" class="slogan-text-1" data-fill-palette-color="secondary" id="text-1"></path></svg></g></svg></g></svg></g></svg></g><g transform="matrix(1,0,0,1,424.93485059243824,0)"><svg viewBox="0 0 103.30822720491977 103.26775059653563" height="103.26775059653563" width="103.30822720491977"><g><svg xmlns="http://www.w3.org/2000/svg" xmlns:xlink="http://www.w3.org/1999/xlink" version="1.1" x="0" y="0" viewBox="0.9993509416145547 1.0234999999999999 62.00079248787664 61.97650031033245" style="enable-background:new 0 0 64 64;" xml:space="preserve" height="103.26775059653563" width="103.30822720491977" class="icon-icon-0" data-fill-palette-color="accent" id="icon-0"><g fill="#ff5a00" data-fill-palette-color="accent"><circle cx="32" cy="25" r="1.0" fill="#000000" data-fill-palette-color="accent"></circle><path d="M24.729 27.446A1 1 0 1 0 23.964 25.599 1 1 0 0 0 24.73 27.446" fill="#000000" data-fill-palette-color="accent"></path><path d="M17.151 30.151A0.999 0.999 0 1 0 18.565 31.565 0.999 0.999 0 1 0 17.151 30.151" fill="#000000" data-fill-palette-color="accent"></path><path d="M13.905 36.422A1.001 1.001 0 1 0 13.14 38.272 1.001 1.001 0 0 0 13.905 36.423" fill="#000000" data-fill-palette-color="accent"></path><circle cx="12" cy="45" r="1.0" fill="#000000" data-fill-palette-color="accent"></circle><path d="M13.14 51.73A1 1 0 1 0 13.905 53.577 1 1 0 0 0 13.14 51.73" fill="#000000" data-fill-palette-color="accent"></path><path d="M50.095 53.578A1.001 1.001 0 0 0 50.861 51.73 1.001 1.001 0 0 0 50.095 53.578" fill="#000000" data-fill-palette-color="accent"></path><circle cx="52" cy="45" r="1.0" fill="#000000" data-fill-palette-color="accent"></circle><path d="M50.86 38.27A1 1 0 1 0 50.095 36.423 1 1 0 0 0 50.86 38.27" fill="#000000" data-fill-palette-color="accent"></path><path d="M45.435 30.151A0.999 0.999 0 1 0 46.849 31.565 0.999 0.999 0 1 0 45.435 30.151" fill="#000000" data-fill-palette-color="accent"></path><path d="M39.271 27.446A1.001 1.001 0 0 0 40.037 25.598 1.001 1.001 0 0 0 39.271 27.446" fill="#000000" data-fill-palette-color="accent"></path><path d="M42.293 33.293L34.019 41.567A3.95 3.95 0 0 0 32 41C29.794 41 28 42.794 28 45S29.794 49 32 49 36 47.206 36 45C36 44.26 35.784 43.576 35.433 42.981L43.707 34.708C44.098 34.317 44.098 33.685 43.707 33.294S42.684 32.902 42.293 33.293M32 47C30.897 47 30 46.103 30 45S30.897 43 32 43 34 43.897 34 45 33.103 47 32 47" fill="#000000" data-fill-palette-color="accent"></path><path d="M41 53H23A1 1 0 1 0 23 55H41A1 1 0 1 0 41 53" fill="#000000" data-fill-palette-color="accent"></path><path d="M37 57H27A1 1 0 1 0 27 59H37A1 1 0 1 0 37 57" fill="#000000" data-fill-palette-color="accent"></path><circle cx="41" cy="58" r="1.0" fill="#000000" data-fill-palette-color="accent"></circle><circle cx="23" cy="58" r="1.0" fill="#000000" data-fill-palette-color="accent"></circle><path d="M32 20C18.215 20 7 31.215 7 45 7 51.693 9.612 57.982 14.354 62.708A1 1 0 0 0 15.061 63H48.94A1 1 0 0 0 49.646 62.708C54.388 57.982 57 51.693 57 45 57 31.215 45.785 20 32 20M48.521 61H15.479A22.84 22.84 0 0 1 9 45C9 32.317 19.318 22 32 22S55 32.317 55 45A22.84 22.84 0 0 1 48.521 61" fill="#000000" data-fill-palette-color="accent"></path><path d="M24 14H27V17A1 1 0 1 0 29 17V13A1 1 0 0 0 28 12H25.964L32 3.7 38.036 12H36A1 1 0 0 0 35 13V17A1 1 0 1 0 37 17V14H40A1 1 0 0 0 40.808 12.412L32.808 1.412C32.432 0.894 31.567 0.894 31.191 1.412L23.191 12.412A1 1 0 0 0 23.108 13.454C23.28 13.789 23.624 14 24 14" fill="#000000" data-fill-palette-color="accent"></path><path d="M62.809 16.412L54.809 5.412C54.433 4.894 53.568 4.894 53.192 5.412L45.192 16.412A1 1 0 0 0 46 18H49V20A1 1 0 1 0 51 20V17A1 1 0 0 0 50 16H47.964L54 7.7 60.036 16H58A1 1 0 0 0 57 17V31A1 1 0 1 0 59 31V18H62A1 1 0 0 0 62.809 16.412" fill="#000000" data-fill-palette-color="accent"></path><circle cx="58" cy="35" r="1.0" fill="#000000" data-fill-palette-color="accent"></circle><circle cx="50" cy="24" r="1.0" fill="#000000" data-fill-palette-color="accent"></circle><path d="M5 31A1 1 0 1 0 7 31V17A1 1 0 0 0 6 16H3.964L10 7.7 16.036 16H14A1 1 0 0 0 13 17V20A1 1 0 1 0 15 20V18H18A1 1 0 0 0 18.808 16.412L10.808 5.412C10.432 4.894 9.567 4.894 9.191 5.412L1.191 16.412A1 1 0 0 0 1.108 17.454C1.28 17.789 1.624 18 2 18H5z" fill="#000000" data-fill-palette-color="accent"></path><circle cx="14" cy="24" r="1.0" fill="#000000" data-fill-palette-color="accent"></circle><circle cx="6" cy="35" r="1.0" fill="#000000" data-fill-palette-color="accent"></circle></g></svg></g></svg></g></svg></g><defs></defs></svg><rect width="395.52" height="77.32133639356523" fill="none" stroke="none" visibility="hidden"></rect></g></svg></g></svg>